<svg xmlns="http://www.w3.org/2000/svg" width="21.027" height="21" viewBox="0 0 21.027 21">
  <path id="Path_8955" data-name="Path 8955" d="M112.139,55h-4.762a.476.476,0,0,1-.476-.476V45.478h-1.429a.476.476,0,0,1-.337-.813l9.524-9.524a.476.476,0,0,1,.673,0l9.524,9.524a.476.476,0,0,1-.337.813h-1.429v9.047a.476.476,0,0,1-.476.476h-4.762a.476.476,0,0,1-.476-.476V48.811a.476.476,0,0,0-.476-.476h-3.81a.476.476,0,0,0-.476.476v5.714a.476.476,0,0,1-.476.476Z" transform="translate(-104.483 -34.502)" fill="none" stroke="#707070" stroke-width="1" fill-rule="evenodd"/>
</svg>
