<svg xmlns="http://www.w3.org/2000/svg" width="71.448" height="66.722" viewBox="0 0 71.448 66.722">
  <path id="JT_PRO_wt_02" data-name="JT PRO_wt_02" d="M101.387,81.72c-.137,0-.282-.012-.411-.012q-34.2,0-68.405,0-.294.008-.588-.009c-.547-.046-.912-.3-.9-.781s.376-.745.93-.751c.794-.009,1.587-.008,2.38-.007h1.4c.194,0,.387-.018.709-.032v-.773c0-10.432.005-14.864.015-25.295,0-.536-.188-.771-.763-1-2.982-1.2-4.546-3.252-4.692-6.071-.161-3.112-.148-3.118,2.111-5.505,2.382-2.517,4.8-5.008,7.16-7.542a7.591,7.591,0,0,1,5.984-2.406c2.068.029,4.136.005,6.326.005h0c0-2.439-.039-4.766.022-7.091a6.509,6.509,0,0,1,.494-2.239,5.073,5.073,0,0,1,2.6-2.547c2.636-1.309,5.265-2.632,7.919-3.919a6.751,6.751,0,0,1,6.084-.039q4.1,1.956,8.132,4.034a4.978,4.978,0,0,1,2.986,4.554c.022,2.115.005,4.23.007,6.345v.856c.352.017.646.043.941.043,1.846,0,3.693.014,5.539,0a7.439,7.439,0,0,1,5.765,2.338c2.937,3.121,5.912,6.215,8.86,9.328.2.217.456.5.454.744a23.325,23.325,0,0,1-.225,4.449c-.475,2.249-2.137,3.815-4.583,4.721-.456.17-.619.366-.619.792.013,10.576.017,15.152.012,25.727,0,.141.019.283.035.529,1.274,0,2.52,0,3.767,0a2.3,2.3,0,0,1,.907.046c.3.15.661.454.671.7s-.339.556-.622.731a.787.787,0,0,1-.347.079ZM38.3,80.13l56.93-.009V53.688c-3.32.033-5.854-1.129-7.556-3.575a8.656,8.656,0,0,1-13.954.027,8.649,8.649,0,0,1-13.954-.024,8,8,0,0,1-6.952,3.538,8.078,8.078,0,0,1-6.949-3.577c-1.724,2.506-4.275,3.641-7.565,3.615ZM88.568,44.756c0,.833-.032,1.595.006,2.356a4.952,4.952,0,0,0,3.226,4.4,6.461,6.461,0,0,0,6.05-.212c2.715-1.517,3.134-3.637,2.715-6.548h-12Zm-55.715,0c0,.821-.042,1.586.008,2.345a5.024,5.024,0,0,0,3.384,4.468,6.528,6.528,0,0,0,6.247-.464c2.587-1.595,2.666-3.913,2.414-6.349H32.852Zm41.8,2.446c.132,3.091,3.625,5.478,7.139,4.824,4.141-.771,5.525-3.767,4.834-7.268H74.644C74.644,45.631,74.616,46.42,74.65,47.207Zm-8.6,4.893c3.046.3,5.953-1.4,6.568-3.956a20.856,20.856,0,0,0,.272-3.374H60.711c0,.831-.019,1.572,0,2.315h0C60.809,49.659,63.076,51.79,66.054,52.1ZM46.785,47.04c.064,2.593,2.407,4.793,5.377,5.062,3.064.276,5.914-1.4,6.541-3.988a20.5,20.5,0,0,0,.269-3.336l0,0H46.781C46.781,45.563,46.767,46.3,46.785,47.04Zm-2.2-3.85h0a1.073,1.073,0,0,0,1.115-.634c1.642-2.913,3.311-5.814,4.97-8.72.119-.21.223-.427.4-.757-1.7,0-3.267.029-4.828-.007a5.64,5.64,0,0,0-4.507,1.823c-2.416,2.582-4.876,5.134-7.317,7.7-.149.158-.282.328-.507.592h.868c1.961,0,3.923-.011,5.884-.011Q42.618,43.175,44.581,43.19ZM82.912,33.082a2.358,2.358,0,0,0-.381.059,1.592,1.592,0,0,0,.084.26c1.781,3.122,3.552,6.249,5.37,9.356a1.266,1.266,0,0,0,.9.4c2.793.026,5.586.026,8.38.026H98.7c.266,0,.532-.019.807-.029h0c-.015-.1,0-.156-.032-.185-2.709-2.843-5.406-5.693-8.139-8.518a4.763,4.763,0,0,0-3.476-1.365q-1.054-.015-2.109-.014C84.806,33.075,83.859,33.08,82.912,33.082ZM76.951,37.2c-.964.435-1.9.916-2.829,1.4-.183.094-.431.319-.408.454.23,1.367.51,2.728.779,4.094H86.2l-5.5-9.625A6.424,6.424,0,0,1,76.951,37.2ZM59.039,43.137c.221-1.117.38-2.216.669-3.288.208-.773-.029-1.164-.853-1.569-2.362-1.161-5.121-1.973-6.008-4.774l-5.507,9.63Zm1.82,0H72.674c-.229-1.165-.446-2.287-.7-3.6-3.506,2.484-6.948,2.426-10.427.017-.253,1.32-.465,2.425-.687,3.579Zm-3.965-7.555c2.432,1.183,4.861,2.371,7.258,3.6a5.382,5.382,0,0,0,5.219.009c2.38-1.211,4.782-2.392,7.188-3.561a3.982,3.982,0,0,0,2.57-3.766q-.015-3.642,0-7.282a3.964,3.964,0,0,0-2.565-3.764c-2.435-1.177-4.853-2.383-7.261-3.6a5.312,5.312,0,0,0-5.072,0c-2.408,1.217-4.824,2.425-7.261,3.6A3.971,3.971,0,0,0,54.4,24.651c.017,1.177,0,2.355,0,3.532h0c0,1.25,0,2.5,0,3.75h0A3.883,3.883,0,0,0,56.894,35.582Zm22.373,36.4a8.254,8.254,0,0,1-2.016-5.861,8.264,8.264,0,0,1,2.016-5.871,8,8,0,0,1,10.936,0,8.264,8.264,0,0,1,2.016,5.871A8.241,8.241,0,0,1,90.2,71.978a7.992,7.992,0,0,1-10.931,0Zm2.43-9.743a7.2,7.2,0,0,0-.005,7.747,3.932,3.932,0,0,0,6.076,0,7.212,7.212,0,0,0,0-7.747,3.917,3.917,0,0,0-6.071,0ZM67.977,73.87l-2.894-5.678h-2.6V73.87H59.234V58.354h6.355a6,6,0,0,1,4.135,1.317A4.612,4.612,0,0,1,71.2,63.3a4.969,4.969,0,0,1-.747,2.7,4.175,4.175,0,0,1-2.069,1.7l3.268,6.161Zm-5.5-8.033h2.8a2.645,2.645,0,0,0,1.909-.655,2.4,2.4,0,0,0,.682-1.817,2.363,2.363,0,0,0-.709-1.8,2.667,2.667,0,0,0-1.913-.672H62.482ZM41.228,73.87V58.354H47.54a5.311,5.311,0,0,1,3.887,1.462,5.15,5.15,0,0,1,1.489,3.849,5.074,5.074,0,0,1-1.537,3.844,5.557,5.557,0,0,1-4,1.468h-2.9V73.87Zm3.247-7.43h2.193a3.07,3.07,0,0,0,2.173-.72,3.084,3.084,0,0,0,.005-4.081,3.062,3.062,0,0,0-2.167-.715h-2.2Zm16.063-31.1a.477.477,0,0,1-.476-.475V33.91a.477.477,0,0,1,.476-.475H72.909a.477.477,0,0,1,.476.475v.952a.477.477,0,0,1-.476.475Zm.476-2.855-2.15-5.733a1.491,1.491,0,0,1-.229.023,1.439,1.439,0,1,1,1.3-.838l2.15,1.291A.951.951,0,0,0,63.4,26.88l2.423-4.24a1.428,1.428,0,1,1,1.8,0l2.424,4.24a.95.95,0,0,0,1.314.346l2.153-1.291a1.409,1.409,0,0,1-.131-.59,1.427,1.427,0,1,1,1.427,1.427,1.468,1.468,0,0,1-.229-.023l-2.15,5.733Zm29.553-4.063c-.315-.049-.774-.482-.761-.728s.472-.571.817-.707A3.208,3.208,0,0,1,91.7,26.96v0a2.716,2.716,0,0,1,.985.025c.316.141.714.458.72.706a.989.989,0,0,1-.678.715,7.4,7.4,0,0,1-1.13.086h-.018A6.619,6.619,0,0,1,90.568,28.419Zm-48.776-.013h0a.974.974,0,0,1-.662-.724c.012-.248.413-.568.732-.695a3.131,3.131,0,0,1,1.071-.023A3.124,3.124,0,0,1,44,26.991c.319.131.722.462.728.711s-.411.666-.7.706a8.178,8.178,0,0,1-1.111.076A8.268,8.268,0,0,1,41.792,28.407Zm4.377-2.7c-.854-.725-1.729-1.436-2.527-2.2a1.033,1.033,0,0,1-.234-.894c.049-.208.437-.355.7-.546a4.734,4.734,0,0,1,.791.408c.846.7,1.669,1.417,2.5,2.129.432.371.6.788.108,1.191a.922.922,0,0,1-.595.229A1.158,1.158,0,0,1,46.168,25.7Zm41.594.241a1.343,1.343,0,0,1-.758-.22h0a.791.791,0,0,1-.074-.877c.932-.891,1.943-1.718,2.942-2.556a1.053,1.053,0,0,1,.392-.125c.728-.012,1.277.621.87,1.026a34.183,34.183,0,0,1-3.118,2.7.443.443,0,0,1-.217.056Zm-3.014-2.524a.8.8,0,0,1-.876-.8c-.017-.263,0-.527,0-.791s-.012-.528,0-.792A.9.9,0,0,1,85.656,21a13.332,13.332,0,0,1,0,1.653.791.791,0,0,1-.884.769ZM48.92,22.767a4.744,4.744,0,0,1,0-1.858,1.076,1.076,0,0,1,.807-.635,1.42,1.42,0,0,1,.893.663c.148.245.031.609.032.921h0c0,.288.112.628-.028.851a1.473,1.473,0,0,1-.88.676l-.026,0A1.11,1.11,0,0,1,48.92,22.767Zm-4.814-.706h0Zm0,0h0Z" transform="translate(-31 -15)" fill="#fff"/>
</svg>
