<svg xmlns="http://www.w3.org/2000/svg" width="20.812" height="17.167" viewBox="0 0 20.812 17.167">
  <path id="Path_8934" data-name="Path 8934" d="M76.141,51.962H70.01a3.025,3.025,0,0,0,1.184,1.356,3.308,3.308,0,0,0,.587.288l.017.007a3.7,3.7,0,0,0,1.277.225,3.578,3.578,0,0,0,1.882-.52,3.022,3.022,0,0,0,1.184-1.355Zm6.935,0H76.945a3.021,3.021,0,0,0,1.184,1.356,3.662,3.662,0,0,0,3.763,0,3.025,3.025,0,0,0,1.184-1.356Zm6.935,0H83.878a3.025,3.025,0,0,0,1.184,1.356,3.585,3.585,0,0,0,1.882.52,3.7,3.7,0,0,0,1.277-.225l.018-.007a3.352,3.352,0,0,0,.587-.288,3.03,3.03,0,0,0,1.184-1.356ZM81.1,57.985v5.077h4.763V57.985a2,2,0,0,0-1.387-1.948,2.991,2.991,0,0,0-1.989,0A2,2,0,0,0,81.1,57.985Zm-7.6,3.707V57.985a2.568,2.568,0,0,1,1.809-2.5,3.658,3.658,0,0,1,2.425,0,2.567,2.567,0,0,1,1.809,2.5v3.707a.292.292,0,0,1-.291.294h-5.46a.292.292,0,0,1-.291-.294Zm.583-3.707V61.4h4.877V57.985a2.008,2.008,0,0,0-1.418-1.952,3.1,3.1,0,0,0-2.04,0,2.008,2.008,0,0,0-1.418,1.952Zm2.248-6.609.662-2.82H72.469l-2.217,2.82Zm6.707-2.82.662,2.82h6.073l-2.216-2.82Zm.065,2.82-.662-2.82h-4.85l-.662,2.82ZM71.98,63.062h8.537V57.985a2.561,2.561,0,0,1,1.771-2.5,3.539,3.539,0,0,1,2.384,0,2.56,2.56,0,0,1,1.772,2.5v5.077h1.6V54.284a4.319,4.319,0,0,1-1.1.141,4.169,4.169,0,0,1-2.186-.606,3.6,3.6,0,0,1-1.281-1.355,3.6,3.6,0,0,1-1.28,1.355,4.25,4.25,0,0,1-4.373,0,3.606,3.606,0,0,1-1.281-1.355,3.6,3.6,0,0,1-1.28,1.355,4.169,4.169,0,0,1-2.187.606,4.313,4.313,0,0,1-1.1-.141v8.778Zm-1.847,2.16H89.887V63.649H70.133Z" transform="translate(-69.626 -48.306)" fill="none" stroke="#707070" stroke-width="0.5"/>
</svg>
