<svg xmlns="http://www.w3.org/2000/svg" width="20.8" height="17.468" viewBox="0 0 20.8 17.468">
  <g id="Group_8828" data-name="Group 8828" transform="translate(-390.69 -180.599)">
    <g id="Group_8826" data-name="Group 8826" transform="translate(391.09 190.667)">
      <path id="Path_8935" data-name="Path 8935" d="M-5,507.346h2.332c0,.066.008.121.008.177q0,1.186,0,2.372a1.224,1.224,0,0,1-1.289,1.293c-.116,0-.233-.009-.349,0A.634.634,0,0,1-5,510.8Z" transform="translate(5 -504.196)" fill="none" stroke="#6f6f6f" stroke-width="0.8"/>
      <path id="Path_8936" data-name="Path 8936" d="M-5,440.232a.636.636,0,0,1,.7-.386c.219.02.444,0,.659.034a1.193,1.193,0,0,1,.977,1.155c.007.3,0,.591,0,.909H-5Z" transform="translate(5 -439.841)" fill="none" stroke="#6f6f6f" stroke-width="0.8"/>
      <path id="Path_8937" data-name="Path 8937" d="M67.552,445.952V444.66c0-1.182,0-2.364,0-3.546a.248.248,0,0,1,.134-.247,5.632,5.632,0,0,1,1.556-.758,3.688,3.688,0,0,1,2.534.249c.38.18.746.389,1.126.569a1.078,1.078,0,0,0,.433.107c.849.01,1.7,0,2.548.008a.962.962,0,0,1,.923.624,1,1,0,0,1-.168,1.106,1.013,1.013,0,0,1-.814.363q-1.486,0-2.972,0a.519.519,0,0,0-.5.711.475.475,0,0,0,.456.333c1.07,0,2.141.022,3.21-.008a2.035,2.035,0,0,0,1.875-1.746.459.459,0,0,1,.122-.235q.839-.842,1.688-1.672a1.115,1.115,0,0,1,1.581-.05,1.189,1.189,0,0,1,.116,1.609c-.923,1.216-1.846,2.431-2.781,3.637a3.113,3.113,0,0,1-2.571,1.262c-1.67,0-3.34.008-5.01-.007a2.619,2.619,0,0,1-.705-.166C69.4,446.526,68.484,446.24,67.552,445.952Z" transform="translate(-64.163 -439.985)" fill="none" stroke="#6f6f6f" stroke-width="0.8"/>
    </g>
    <g id="Group_8827" data-name="Group 8827" transform="translate(393.602 181)">
      <path id="Path_8935-2" data-name="Path 8935" d="M-2.659,511.2H-4.991c0-.066-.008-.121-.008-.177q0-1.186,0-2.372a1.224,1.224,0,0,1,1.289-1.293c.116,0,.233.009.349,0a.634.634,0,0,1,.7.386Z" transform="translate(20.147 -507.346)" fill="none" stroke="#6f6f6f" stroke-width="0.8"/>
      <path id="Path_8936-2" data-name="Path 8936" d="M-2.658,441.553a.636.636,0,0,1-.7.386c-.219-.02-.444,0-.659-.034A1.193,1.193,0,0,1-5,440.75c-.007-.3,0-.591,0-.909h2.339Z" transform="translate(20.146 -434.944)" fill="none" stroke="#6f6f6f" stroke-width="0.8"/>
      <path id="Path_8937-2" data-name="Path 8937" d="M81.649,441.02v1.292c0,1.182,0,2.364,0,3.546a.248.248,0,0,1-.134.247,5.632,5.632,0,0,1-1.556.758,3.688,3.688,0,0,1-2.534-.249c-.38-.18-.746-.389-1.126-.569a1.078,1.078,0,0,0-.433-.107c-.849-.01-1.7,0-2.548-.008a.962.962,0,0,1-.923-.624,1,1,0,0,1,.168-1.106,1.013,1.013,0,0,1,.814-.363q1.486,0,2.972,0a.519.519,0,0,0,.5-.711.475.475,0,0,0-.456-.333c-1.07,0-2.141-.022-3.21.008a2.035,2.035,0,0,0-1.875,1.746.458.458,0,0,1-.122.235q-.839.842-1.688,1.672a1.115,1.115,0,0,1-1.581.05,1.189,1.189,0,0,1-.116-1.609c.923-1.216,1.846-2.431,2.781-3.637a3.113,3.113,0,0,1,2.571-1.262c1.67,0,3.34-.008,5.01.007a2.62,2.62,0,0,1,.705.166C79.8,440.446,80.716,440.732,81.649,441.02Z" transform="translate(-67.549 -439.987)" fill="none" stroke="#6f6f6f" stroke-width="0.8"/>
    </g>
  </g>
</svg>
