<?xml version="1.0" encoding="UTF-8"?>
<svg id="Layer_2" data-name="Layer 2" xmlns="http://www.w3.org/2000/svg" viewBox="0 0 121.67 121.13">
  <g id="Layer_1-2" data-name="Layer 1">
    <g>
      <path d="M.45,28.77c.75,1.5,2.83,1.75,4.05,.6,.34-.32,.6-.66,.67-1.04,.32-1.62,.24-3.32,.18-5.33-.04-1.3,.95-2.39,2.24-2.5,15.31-1.36,28.77-6.6,41.17-14.92,.93-.63,3.22-.16,4.35,.59,11.8,7.84,24.62,12.84,38.78,14.12,2.06,.19,3.62,1.93,3.55,4-.15,4.79,0,9.59-.04,14.38-.06,8.43-.28,16.86-.15,25.28,0,.13,.02,.26,.04,.39,.42,2.29,2.54,2.89,4.34,1.4,.65-.54,.7-.87,.82-1.42,.23-1.03,.16-2.32,.17-3.47,.01-12.4,.04-24.8,0-37.2-.02-5.9-1.88-8.13-7.83-8.62-13.34-1.11-25.41-5.69-36.36-13.19-3.67-2.51-8.53-2.45-12.19,.09-10.19,7.09-21.44,11.87-33.91,12.78C-1.12,15.55,.03,20.13,.29,28.19c0,.19,.06,.38,.16,.58Z" style="fill: #000;"/>
      <path d="M97.8,73.57c-12.94,.14-23.6,10.84-23.68,23.77-.07,13.13,10.76,23.87,24.01,23.79,13.15-.07,23.51-10.47,23.54-23.63,.03-13.25-10.76-24.07-23.87-23.93Zm.45,42.37c-10.31,.14-18.62-8.02-18.69-18.36-.07-10.45,7.97-18.57,18.39-18.57,10.36,0,18.59,8.22,18.54,18.52-.05,10-8.25,18.28-18.24,18.42Z" style="fill: #000;"/>
      <path d="M37.11,36.14c-.03,8.17,2.64,12.97,8.46,15.24,6.75,2.63,14.53-.8,17.08-7.52,3.51-9.28-.03-19.47-7.77-22.35-9.41-3.5-17.72,3.35-17.76,14.64Z" style="fill: #000;"/>
      <path d="M65.43,107.12l-.04,.02c-3.92,2.1-7.66,4.55-11.35,7.05-2.48,1.68-4.65,1.87-7.19,.07-6.19-4.38-12.85-8.16-18.68-12.96-11.32-9.33-20.48-20.46-22.33-35.64-.94-7.66-.11-15.51-.49-23.26-.1-1.93,.14-5.42-2.48-5.42C0,36.97,.31,40.34,.19,42.57c-.18,3.46-.05,6.94-.05,10.41-.65,10.76,.78,21.08,6.13,30.66,6.69,11.97,16.23,21.31,27.57,28.66,18.28,11.86,14.7,11.7,33.35-.14,.42-.27,.79-.5,1.11-.87,.26-.3,.34-.54,.46-.82,.9-2.11-1.28-4.4-3.32-3.35Z" style="fill: #000;"/>
      <path d="M62.55,58.04c-8.06-.54-16.2-.54-24.26-.04-6.35,.39-10.97,5.27-11.45,11.13-.02,.22,0,.44,.04,.66,.4,2.17,3.06,2.85,4.5,1.18,.22-.25,.37-.52,.44-.8,1.24-5.51,4.77-7.41,10.43-7.03,5.14,.35,10.3,.54,15.42,.04,6.23-.6,10.03,1.36,11.31,7.24,.08,.38,.33,.72,.67,1.04,1.19,1.13,3.13,.9,4.12-.41l.19-.26c-.05-6.68-4.95-12.32-11.41-12.75Z" style="fill: #000;"/>
      <path d="M105.19,90.28c-.59,.1-1.12,.27-1.5,.61-2.32,2.07-4.39,4.4-6.68,6.89-.84,.91-2.29,.94-3.15,.05-.79-.81-1.46-1.47-2.25-1.83-.52-.24-1.12-.29-1.76-.28-1.23,.02-2.18,1.08-2.11,2.31,.04,.62,.14,1.2,.43,1.65,1.05,1.63,2.73,2.84,4.09,4.29,2.05,2.2,3.93,1.88,5.9-.15,2.99-3.09,6.23-5.95,8.99-9.22,.42-.49,.56-1.22,.62-2.02,.11-1.43-1.16-2.55-2.57-2.31Z" style="fill: #000;"/>
    </g>
  </g>
</svg>