<?xml version="1.0" standalone="no"?>
<!DOCTYPE svg PUBLIC "-//W3C//DTD SVG 20010904//EN"
 "http://www.w3.org/TR/2001/REC-SVG-20010904/DTD/svg10.dtd">
<svg version="1.0" xmlns="http://www.w3.org/2000/svg"
 width="512.000000pt" height="512.000000pt" viewBox="0 0 512.000000 512.000000"
 preserveAspectRatio="xMidYMid meet">

<g transform="translate(0.000000,512.000000) scale(0.100000,-0.100000)"
fill="#784ddf" stroke="none">
<path  style="fill:#eb62ed" d="M3615 5038 c-31 -18 -1338 -1060 -1352 -1077 -20 -26 -15 -75 10 -99
20 -19 35 -22 110 -22 l87 0 0 -515 0 -515 -56 0 c-54 0 -92 -12 -106 -34 -4
-6 -8 -99 -8 -207 0 -187 1 -197 21 -215 21 -18 57 -19 1326 -19 l1305 0 19
24 c17 21 19 41 19 216 l0 194 -26 20 c-20 16 -41 21 -85 21 l-59 0 0 515 0
515 85 0 c78 0 88 2 110 25 27 26 33 71 13 97 -16 19 -1329 1063 -1357 1077
-24 14 -31 13 -56 -1z m565 -591 c283 -226 526 -420 540 -433 l25 -24 -1104 0
c-608 0 -1102 2 -1100 4 2 2 251 200 553 439 302 240 553 434 559 430 6 -4
243 -191 527 -416z m-1360 -1122 l0 -515 -100 0 -100 0 0 515 0 515 100 0 100
0 0 -515z m580 0 l0 -515 -215 0 -215 0 0 515 0 515 215 0 215 0 0 -515z m340
0 l0 -515 -95 0 -95 0 0 515 0 515 95 0 95 0 0 -515z m580 0 l0 -515 -215 0
-215 0 0 515 0 515 215 0 215 0 0 -515z m350 0 l0 -515 -100 0 -100 0 0 515 0
515 100 0 100 0 0 -515z m170 -755 l0 -90 -1195 0 -1195 0 0 90 0 90 1195 0
1195 0 0 -90z"/>
<path  style="fill:#eb62ed" d="M3564 4619 c-58 -17 -125 -72 -158 -129 -96 -171 36 -383 239 -383
150 0 260 112 259 263 0 177 -168 299 -340 249z m137 -152 c18 -12 39 -38 47
-58 12 -31 11 -41 -2 -72 -32 -77 -119 -97 -177 -41 -56 53 -43 145 24 178 44
21 68 20 108 -7z"/>
<path style="fill:#9867ef" d="M1672 4894 c-16 -11 -22 -25 -22 -54 0 -39 4 -43 181 -197 l181 -158
-702 -5 -702 -5 -19 -24 c-18 -22 -19 -53 -19 -971 0 -943 0 -947 21 -974 26
-33 79 -36 109 -6 20 20 20 33 20 925 l0 905 645 0 c355 0 645 -2 645 -4 0 -2
-81 -74 -180 -160 -176 -154 -180 -158 -180 -196 0 -31 5 -43 24 -55 51 -34
70 -22 337 214 140 122 260 231 267 242 35 47 7 76 -450 472 -83 71 -113 81
-156 51z"/>
<path d="M789 2255 c-371 -295 -682 -548 -691 -562 -20 -32 -15 -70 14 -95 16
-14 39 -18 104 -18 l84 0 0 -515 0 -515 -59 0 c-44 0 -65 -5 -85 -21 l-26 -20
0 -193 c0 -157 3 -196 16 -214 l15 -22 1313 0 c1259 0 1314 1 1329 18 15 16
17 46 17 215 0 237 0 237 -105 237 l-65 0 0 515 0 515 84 0 c69 0 88 4 110 21
31 25 35 76 9 107 -22 25 -1312 1055 -1341 1071 -11 6 -27 11 -35 11 -8 0
-317 -241 -688 -535z m1218 -61 c291 -229 539 -427 553 -440 l25 -24 -1105 0
-1105 0 25 24 c27 26 1071 856 1076 856 2 0 241 -187 531 -416z m-1357 -1129
l0 -515 -100 0 -100 0 0 515 0 515 100 0 100 0 0 -515z m580 0 l0 -515 -215 0
-215 0 0 515 0 515 215 0 215 0 0 -515z m340 0 l0 -515 -95 0 -95 0 0 515 0
515 95 0 95 0 0 -515z m580 0 l0 -515 -215 0 -215 0 0 515 0 515 215 0 215 0
0 -515z m350 0 l0 -515 -100 0 -100 0 0 515 0 515 100 0 100 0 0 -515z m170
-750 l0 -85 -1195 0 -1195 0 0 85 0 85 1195 0 1195 0 0 -85z"/>
<path d="M1410 2371 c-104 -32 -179 -118 -195 -223 -24 -159 134 -317 293
-293 165 25 264 179 218 339 -38 130 -190 215 -316 177z m105 -145 c36 -15 75
-67 75 -99 0 -37 -32 -85 -67 -102 -46 -22 -91 -13 -129 26 -51 54 -31 144 39
174 40 18 41 18 82 1z"/>
<path  style="fill:#9867ef" d="M4211 2153 c-16 -16 -124 -135 -240 -266 -148 -166 -211 -244 -211
-261 0 -13 10 -35 21 -50 17 -22 28 -26 57 -24 33 3 48 16 152 134 63 72 134
153 157 180 l42 49 1 -757 0 -758 -560 0 -561 0 -24 -25 c-32 -31 -33 -74 -2
-103 l23 -22 620 0 c520 0 623 2 640 14 18 14 19 37 24 826 l5 811 157 -180
c104 -119 167 -183 184 -187 39 -10 78 23 82 69 3 34 -8 49 -214 284 -119 136
-227 258 -241 271 -33 30 -76 28 -112 -5z"/>
</g>
</svg>
