<svg xmlns="http://www.w3.org/2000/svg" width="120.043" height="119.663" viewBox="0 0 120.043 119.663">
  <path id="BINANCE" d="M23.421,83.026c4.218-4.279,8.629-8.757,13.036-13.228q11.6,11.61,23.269,23.292C67.64,85.1,75.4,77.256,83.117,69.458v0C87.87,74.238,92.31,78.7,96.668,83.075l-36.6,36.589C47.885,107.483,35.582,95.188,23.421,83.026Zm36.516-9.752,0,0,0,0ZM46.562,59.907,59.854,46.615c4.433,4.437,8.934,8.945,13.361,13.379-4.312,4.316-8.794,8.8-13.276,13.28Zm60.3,13.164h0l0,0ZM93.689,59.884c4.358-4.358,8.8-8.8,13.157-13.161,4.373,4.366,8.821,8.81,13.2,13.183L106.857,73.071C102.481,68.688,98.042,64.244,93.689,59.884ZM0,59.923c4.362-4.331,8.812-8.749,13.268-13.171,4.29,4.29,8.707,8.711,13.064,13.069L13.082,73.06C8.746,68.706,4.335,64.281,0,59.923ZM23.239,36.491C35.443,24.362,47.741,12.136,59.948,0L96.559,36.611c-4.316,4.286-8.772,8.712-13.311,13.22L60.1,26.648Q48.3,38.508,36.8,50.062C32.147,45.406,27.7,40.954,23.239,36.491ZM13.266,46.75h0l0,0Z"/>
</svg>
