<svg width="210" height="48" viewBox="0 0 210 48" fill="none" xmlns="http://www.w3.org/2000/svg">
<path d="M40.1092 1.25684H49.2321L18.9247 33.0285H36.6004V39.7335H1.63257L40.1092 1.25684Z" fill="#151515"/>
<path fill-rule="evenodd" clip-rule="evenodd" d="M43.3107 14.4357V44.1038L47.3504 39.1304V3.1421L19.9299 31.9454H25.8215L43.3107 14.4357ZM28.3226 31.9454H35.2089V25.0511L28.3226 31.9454ZM36.9785 23.2794V40.6433H1.76962V46.2304H41.5411V18.7115L36.9785 23.2794ZM42.4259 48H0V39.7585L39.7121 0H49.12V39.7585L42.4259 48ZM46.2137 1.76962L15.802 33.715H35.2089V38.8737H3.38493L40.4457 1.76962H46.2137Z" fill="#151515"/>
<path d="M76.9995 34.821C75.3432 34.821 73.8197 34.5347 72.4292 33.9621C71.0591 33.3896 69.8629 32.6023 68.8404 31.6003C67.8384 30.5778 67.0511 29.3713 66.4786 27.9808C65.9264 26.5698 65.6504 25.0464 65.6504 23.4105C65.6504 21.7746 65.9264 20.2614 66.4786 18.8708C67.0511 17.4599 67.8384 16.2534 68.8404 15.2514C69.8629 14.2289 71.0591 13.4314 72.4292 12.8589C73.8197 12.2863 75.3432 12 76.9995 12C78.6559 12 80.1691 12.2863 81.5392 12.8589C82.9297 13.4314 84.126 14.2289 85.128 15.2514C86.1504 16.2534 86.9377 17.4599 87.4898 18.8708C88.0624 20.2614 88.3487 21.7746 88.3487 23.4105C88.3487 25.0464 88.0624 26.5698 87.4898 27.9808C86.9377 29.3713 86.1504 30.5778 85.128 31.6003C84.126 32.6023 82.9297 33.3896 81.5392 33.9621C80.1691 34.5347 78.6559 34.821 76.9995 34.821ZM76.9995 32.4285C78.2674 32.4285 79.4227 32.1933 80.4656 31.723C81.529 31.2526 82.4389 30.6085 83.1955 29.7905C83.9522 28.9726 84.535 28.0217 84.9439 26.9379C85.3734 25.8337 85.5881 24.6579 85.5881 23.4105C85.5881 22.1631 85.3734 20.9975 84.9439 19.9137C84.535 18.8095 83.9522 17.8484 83.1955 17.0304C82.4389 16.2125 81.529 15.5683 80.4656 15.098C79.4227 14.6277 78.2674 14.3925 76.9995 14.3925C75.7317 14.3925 74.5661 14.6277 73.5028 15.098C72.4599 15.5683 71.5601 16.2125 70.8035 17.0304C70.0469 17.8484 69.4539 18.8095 69.0245 19.9137C68.6155 20.9975 68.411 22.1631 68.411 23.4105C68.411 24.6579 68.6155 25.8337 69.0245 26.9379C69.4539 28.0217 70.0469 28.9726 70.8035 29.7905C71.5601 30.6085 72.4599 31.2526 73.5028 31.723C74.5661 32.1933 75.7317 32.4285 76.9995 32.4285Z" fill="#151515"/>
<path d="M94.7079 12.5521H97.9593L110.535 30.5881H110.597V12.5521H113.173V34.2689H109.922L97.3458 16.2329H97.2845V34.2689H94.7079V12.5521Z" fill="#151515"/>
<path d="M120.8 12.5521H126.352C127.395 12.5521 128.428 12.6135 129.45 12.7362C130.493 12.8589 131.424 13.1247 132.242 13.5337C133.06 13.9426 133.724 14.5459 134.235 15.3434C134.747 16.1205 135.002 17.1838 135.002 18.5334C135.002 20.1284 134.522 21.4167 133.561 22.3983C132.599 23.3798 131.27 24.0035 129.573 24.2693L135.738 34.2689H132.579L126.69 24.5147H123.377V34.2689H120.8V12.5521ZM123.377 22.1222H125.678C126.393 22.1222 127.129 22.1018 127.886 22.0609C128.663 22.02 129.369 21.887 130.002 21.6621C130.657 21.4372 131.188 21.0895 131.597 20.6192C132.027 20.1284 132.242 19.4332 132.242 18.5334C132.242 17.7564 132.088 17.1327 131.782 16.6623C131.475 16.192 131.066 15.8342 130.555 15.5888C130.064 15.3229 129.501 15.1491 128.868 15.0673C128.254 14.9855 127.63 14.9446 126.996 14.9446H123.377V22.1222Z" fill="#151515"/>
<path d="M165.587 12.5521H169.421L176.783 29.5758H176.844L184.267 12.5521H188.009V34.2689H185.432V16.0489H185.371L177.58 34.2689H176.016L168.225 16.0489H168.163V34.2689H165.587V12.5521Z" fill="#151515"/>
<path d="M195.633 12.5521H202.075C203.077 12.5521 204.028 12.6544 204.927 12.8589C205.848 13.0429 206.655 13.3701 207.35 13.8404C208.066 14.2903 208.629 14.9037 209.038 15.6808C209.467 16.4374 209.682 17.3781 209.682 18.5028C209.682 19.6888 209.457 20.6703 209.007 21.4474C208.557 22.2245 207.974 22.8379 207.258 23.2878C206.563 23.7377 205.796 24.0546 204.958 24.2387C204.12 24.4227 203.322 24.5147 202.565 24.5147H198.21V34.2689H195.633V12.5521ZM198.21 22.1222H202.565C203.854 22.1222 204.897 21.8359 205.694 21.2634C206.512 20.6703 206.921 19.7604 206.921 18.5334C206.921 17.3065 206.512 16.4067 205.694 15.8342C204.897 15.2412 203.854 14.9446 202.565 14.9446H198.21V22.1222Z" fill="#151515"/>
<path d="M148.826 12.5521H151.249L160.482 34.2689H157.476L149.991 15.8648H149.93L142.17 34.2689H139.256L148.826 12.5521Z" fill="#151515"/>
</svg>
