<svg width="82" height="25" fill="none" xmlns="http://www.w3.org/2000/svg"><rect y=".5" width="23.97" height="24" rx="11.99" fill="#9B2AD6"/><path d="M17.17 16.41c0-.8.62-1.32 1.4-1.32.8 0 1.42.52 1.42 1.32s-.63 1.35-1.41 1.35c-.79 0-1.41-.57-1.41-1.35Z" fill="#FF8500"/><path d="M16.8 13.18c0 2.86-2.1 4.69-4.8 4.69-1.29 0-2.33-.4-3.03-1.19v1.05H6.66V5.17H9.1v4.42c.72-.75 1.7-1.1 2.9-1.1 2.7 0 4.8 1.82 4.8 4.69Zm-2.26 0c0-1.58-1.06-2.53-2.46-2.53s-2.45.95-2.45 2.53c0 1.57 1.06 2.52 2.45 2.52 1.4 0 2.46-.95 2.46-2.52Z" fill="#fff"/><path d="M35.41 6.72a5.4 5.4 0 0 1 3.1.78 2.45 2.45 0 0 1 1.13 2.12 2.63 2.63 0 0 1-2.04 2.56 2.89 2.89 0 0 1 2.47 2.94c0 1-.4 1.79-1.2 2.37-.8.57-1.9.86-3.27.86h-5.63V6.72h5.44Zm-.13 4.68c.5 0 .9-.1 1.18-.33.3-.23.44-.55.44-.96 0-.4-.14-.71-.44-.93a1.8 1.8 0 0 0-1.18-.32h-2.64v2.54h2.64Zm0 4.8c.63 0 1.13-.12 1.49-.36.36-.25.54-.6.54-1.05 0-.42-.18-.75-.54-1a2.55 2.55 0 0 0-1.5-.34h-2.63v2.76h2.64Zm15.76-9.48h2.54v11.63h-2.44l-5.73-7.48v7.48h-2.55V6.72h2.43l5.75 7.5v-7.5Zm13.79 3.24a8.72 8.72 0 0 0-3.69-1.2c-.46 0-.83.08-1.1.25a.8.8 0 0 0-.4.73c0 .41.19.73.57.95.4.2 1 .43 1.81.66.81.24 1.48.47 2 .7.53.23.98.58 1.35 1.05.37.46.56 1.08.56 1.84 0 .75-.2 1.39-.61 1.93-.4.53-.94.94-1.64 1.21-.7.28-1.5.42-2.39.42a8.3 8.3 0 0 1-5.22-1.86l1.06-2.15c.6.54 1.29.96 2.07 1.28.77.33 1.48.49 2.13.49.55 0 .98-.1 1.28-.3.32-.2.48-.5.48-.87 0-.3-.11-.54-.32-.73-.2-.2-.47-.36-.8-.48-.32-.12-.75-.26-1.32-.42-.81-.22-1.48-.44-2-.66a3.5 3.5 0 0 1-1.31-1.01 2.77 2.77 0 0 1-.56-1.82c0-.7.19-1.3.57-1.82.39-.54.92-.94 1.61-1.22a6.18 6.18 0 0 1 2.4-.43 8.45 8.45 0 0 1 4.5 1.28l-1.03 2.18Z" fill="#9B2AD6"/></svg>