<svg xmlns="http://www.w3.org/2000/svg" width="22.586" height="27.29" viewBox="0 0 22.586 27.29">
  <path id="Path_54" data-name="Path 54" d="M17.12,0H4.466A4.479,4.479,0,0,0,0,4.466V17.121a4.479,4.479,0,0,0,4.466,4.465H17.12a4.308,4.308,0,0,0,.446-.023l4.02,4.02V4.466A4.479,4.479,0,0,0,17.12,0m-5.4,4.073a1.193,1.193,0,0,1,2.386,0V5.523h-.12a2.734,2.734,0,0,0-2.266,1.2ZM9.867,17.514a1.193,1.193,0,0,1-2.386,0V16.065H7.6a2.734,2.734,0,0,0,2.266-1.2Zm0-4.184A2.266,2.266,0,0,1,7.6,15.6H5.275a2.265,2.265,0,0,1-2.059-1.319.627.627,0,0,1,.567-.892H7.131v-.506h-3.5a.626.626,0,0,1-.626-.626v-.7a.626.626,0,0,1,.626-.626h3.5v-.507h-3.5a.626.626,0,0,1-.626-.626v-.7a.626.626,0,0,1,.626-.626h3.5V7.95h-3.2a.626.626,0,0,1-.519-.978,2.264,2.264,0,0,1,1.866-.981H7.6A2.266,2.266,0,0,1,9.867,8.258ZM16.311,15.6H13.985a2.266,2.266,0,0,1-2.266-2.266V8.258a2.266,2.266,0,0,1,2.266-2.266h2.327A2.266,2.266,0,0,1,18.37,7.311.627.627,0,0,1,17.8,8.2H14.455v.506h3.5a.626.626,0,0,1,.626.626v.7a.626.626,0,0,1-.626.626h-3.5v.507h3.5a.626.626,0,0,1,.626.626v.7a.626.626,0,0,1-.626.626h-3.5v.506h3.2a.626.626,0,0,1,.519.978,2.262,2.262,0,0,1-1.866.981" transform="translate(0.5 0.499)" fill="none" stroke="#6f6f6f" stroke-width="1"/>
</svg>
