  <svg
                              xmlns="http://www.w3.org/2000/svg"
                              width="226.2"
                              height="200.388"
                              viewBox="0 0 226.2 200.388"
                            >
                              <g
                                id="Group_1217"
                                data-name="Group 1217"
                                transform="translate(0.2 -3.913)"
                              >
                                <g
                                  id="Group_1215"
                                  data-name="Group 1215"
                                  transform="translate(0 0)"
                                >
                                  <g
                                    id="Group_3"
                                    data-name="Group 3"
                                    transform="translate(0 0)"
                                  >
                                    <path
                                      id="Path_1"
                                      data-name="Path 1"
                                      d="M272.782,431.842q-31.084,0-62.167-.007c-23.133-.029-37.7-12.773-38.018-35.4q-.916-64.568,0-129.156c.326-22.792,14.642-35.351,37.933-35.383q48.037-.067,96.074-.008a54.613,54.613,0,0,1,5.645.145c3.515.371,5.726,2.329,5.722,5.832s-2.295,5.447-5.737,5.879a51.126,51.126,0,0,1-6.348.179q-46.626.015-93.25.018c-18.886.02-27.124,8.09-27.131,26.518q-.021,61.818.005,123.638c.01,17.073,8.442,25.586,25.943,25.643q61.107.2,122.213,0c16.838-.052,25.141-8.332,25.2-24.7.076-21.182.014-42.363.034-63.545a56.582,56.582,0,0,1,.268-6.893c.462-3.719,1.986-6.857,6.455-6.818,4.9.042,6.341,3.387,6.345,7.479.026,25.325.464,50.663-.2,75.971-.444,16.844-15.756,30.359-33.288,30.525-21.9.21-43.8.051-65.7.051Z"
                                      transform="translate(-172.137 -227.763)"
                                      fill="#fff"
                                      stroke="#fff"
                                      stroke-width="0.4"
                                    />
                                    <g
                                      id="Path_3"
                                      data-name="Path 3"
                                      transform="translate(-117.896 -213.906)"
                                      fill="#fff"
                                    >
                                      <path
                                        d="M 311.0355224609375 292.4652404785156 C 309.0365295410156 292.4652404785156 307.715087890625 291.7274475097656 306.9956665039063 290.209716796875 C 306.3632507324219 288.8755187988281 306.2663269042969 287.0918579101563 306.2557983398438 285.3630981445313 C 306.1883850097656 274.7538146972656 306.1922607421875 263.9659118652344 306.196044921875 253.5331878662109 C 306.1974182128906 249.7425842285156 306.1988220214844 245.8229064941406 306.1968078613281 241.9677429199219 C 306.1957397460938 240.0498046875 306.1957397460938 238.1330413818359 306.1957397460938 236.3025054931641 L 306.1957397460938 236.1595001220703 L 306.0604248046875 236.1132507324219 C 305.6575927734375 235.9755706787109 305.2796936035156 235.9057769775391 304.9372253417969 235.9057769775391 C 303.7838745117188 235.9057769775391 303.1731262207031 236.6645202636719 302.6342468261719 237.3339385986328 C 302.4593505859375 237.5512084960938 302.2941284179688 237.7564239501953 302.1188659667969 237.9266510009766 C 298.8270874023438 241.1273193359375 295.5198364257813 244.4211883544922 292.3214721679688 247.6066131591797 C 290.5911254882813 249.3299407958984 288.8018493652344 251.1119689941406 287.0359802246094 252.8583679199219 C 285.6017150878906 254.2765197753906 284.2315368652344 254.9956207275391 282.9635009765625 254.9956512451172 C 281.9044799804688 254.9956970214844 280.8749694824219 254.4924468994141 279.903564453125 253.4998931884766 C 278.7696228027344 252.3422088623047 278.3058471679688 251.1102294921875 278.5250549316406 249.8381500244141 C 278.7158508300781 248.7308654785156 279.4237060546875 247.5593109130859 280.62890625 246.3560638427734 C 285.0806884765625 241.9117736816406 289.6150817871094 237.4004821777344 294.0001525878906 233.0377044677734 C 298.1208801269531 228.9379577636719 302.3818969726563 224.6986389160156 306.5665588378906 220.5226898193359 C 308.0994262695313 218.9937896728516 309.6473693847656 218.2185516357422 311.1674194335938 218.2185516357422 C 312.5358276367188 218.2185516357422 313.8813171386719 218.8538513183594 315.1665344238281 220.1068115234375 C 323.4261474609375 228.1602630615234 332.1729125976563 236.835205078125 341.9066772460938 246.6273803710938 C 342.9529418945313 247.6806793212891 343.5651550292969 248.8408660888672 343.6770935058594 249.9824371337891 C 343.7988586425781 251.2245635986328 343.3392028808594 252.3891296386719 342.3109436035156 253.4437713623047 C 341.335693359375 254.4445190429688 340.2798767089844 254.9519195556641 339.1727905273438 254.9519195556641 C 337.8672485351563 254.9519195556641 336.4999694824219 254.2668609619141 335.10888671875 252.9157409667969 C 332.2799682617188 250.1694793701172 329.4355163574219 247.3448486328125 326.6846923828125 244.6132202148438 C 324.7469482421875 242.6889801025391 322.7432556152344 240.6992492675781 320.7613525390625 238.7531585693359 C 319.9751281738281 237.9800567626953 319.1301879882813 237.2355041503906 318.0604553222656 236.2928619384766 C 317.475830078125 235.7776947021484 316.813232421875 235.1938018798828 316.0415344238281 234.5012512207031 L 315.7079772949219 234.2018737792969 L 315.7079772949219 234.6501007080078 L 315.7079772949219 252.0511016845703 C 315.7062072753906 261.0322265625 315.7049865722656 270.0131225585938 315.7037353515625 278.9939880371094 L 315.7028503417969 285.3930358886719 C 315.7028503417969 287.1223449707031 315.651123046875 288.9229125976563 315.0328369140625 290.2647705078125 C 314.3505859375 291.7454528808594 313.0430297851563 292.4652404785156 311.0355224609375 292.4652404785156 Z"
                                        stroke="none"
                                      />
                                      <path
                                        d="M 311.1674499511719 218.4185485839844 C 309.7021484375 218.4186706542969 308.2016906738281 219.1742553710938 306.7078552246094 220.6642456054688 C 302.5231323242188 224.8402099609375 298.2621765136719 229.0794677734375 294.1415100097656 233.17919921875 C 289.7563781738281 237.5419921875 285.2219848632813 242.0533447265625 280.7702026367188 246.4976196289063 C 278.2372741699219 249.0264587402344 278.0005187988281 251.2711181640625 280.0464782714844 253.3599853515625 C 280.9788513183594 254.3126220703125 281.9602661132813 254.795654296875 282.9635009765625 254.795654296875 C 284.1769714355469 254.795654296875 285.4998474121094 254.0959930419922 286.8953552246094 252.7161254882813 C 288.6613159179688 250.9696655273438 290.4508056640625 249.1874389648438 292.1813659667969 247.4638671875 C 295.3797912597656 244.2783813476563 298.6871337890625 240.9844360351563 301.9795227050781 237.7831726074219 C 302.1460266113281 237.6214904785156 302.3074951171875 237.4208984375 302.4784545898438 237.2085266113281 C 303.0174255371094 236.5390014648438 303.6881713867188 235.7057800292969 304.937255859375 235.7057800292969 C 305.3017578125 235.7057800292969 305.7013854980469 235.7791748046875 306.1250915527344 235.9239807128906 L 306.395751953125 236.0164794921875 L 306.395751953125 236.302490234375 C 306.395751953125 238.1329956054688 306.395751953125 240.0497131347656 306.3967895507813 241.9676208496094 C 306.3988342285156 245.8228759765625 306.3973999023438 249.7425842285156 306.3960266113281 253.5332641601563 C 306.3922729492188 263.9656372070313 306.3883972167969 274.7532043457031 306.4557800292969 285.3618774414063 C 306.4661865234375 287.0675964355469 306.5606689453125 288.8250732421875 307.1763916015625 290.1240539550781 C 307.8593444824219 291.5648193359375 309.1216735839844 292.2651977539063 311.0355224609375 292.2651977539063 C 312.9835510253906 292.2651977539063 314.1960144042969 291.6029663085938 314.8511962890625 290.1810607910156 C 315.4525451660156 288.8759765625 315.5028686523438 287.1001586914063 315.5028686523438 285.3930053710938 L 315.5037536621094 278.9939575195313 C 315.5049743652344 270.0130615234375 315.5062255859375 261.0321655273438 315.5079650878906 252.0510864257813 L 315.5079650878906 233.7536315917969 L 316.1751403808594 234.3523864746094 C 316.9461975097656 235.0444030761719 317.6084899902344 235.6280212402344 318.1928100585938 236.1429138183594 C 319.2647705078125 237.0875244140625 320.1114807128906 237.8336486816406 320.9014587402344 238.6104736328125 C 322.884033203125 240.5572204589844 324.8882446289063 242.5474243164063 326.8264465332031 244.4721374511719 C 329.5765991210938 247.2030944824219 332.4203491210938 250.0270385742188 335.2482299804688 252.7722778320313 C 336.6007080078125 254.0858612060547 337.9211120605469 254.7519226074219 339.1727905273438 254.7519226074219 C 340.2239074707031 254.7519226074219 341.2315368652344 254.2648315429688 342.167724609375 253.3041381835938 C 343.1529235839844 252.2936706542969 343.5937805175781 251.1826477050781 343.47802734375 250.001953125 C 343.3706665039063 248.9067687988281 342.7781982421875 247.78857421875 341.7648315429688 246.7683715820313 C 332.0331115722656 236.9782409667969 323.2870483398438 228.3040161132813 315.0269470214844 220.2500305175781 C 313.7802429199219 219.0346374511719 312.4817199707031 218.41845703125 311.1674499511719 218.4185485839844 M 311.1674194335938 218.0185546875 C 312.5539855957031 218.0184326171875 313.9459838867188 218.6376037597656 315.30615234375 219.963623046875 C 324.2952880859375 228.7283935546875 333.1975402832031 237.582275390625 342.0485229492188 246.4863891601563 C 344.1406555175781 248.5925903320313 344.6947937011719 251.2852783203125 342.4541320800781 253.5833740234375 C 339.9580078125 256.144775390625 337.2568359375 255.28076171875 334.9695434570313 253.0592041015625 C 330.14697265625 248.3775634765625 325.416259765625 243.604248046875 320.6212158203125 238.8958740234375 C 319.4165649414063 237.7113037109375 318.111572265625 236.6277465820313 315.907958984375 234.6500854492188 C 315.907958984375 241.2581787109375 315.907958984375 246.6544799804688 315.907958984375 252.0510864257813 C 315.9057922363281 263.1653442382813 315.9044189453125 274.2791748046875 315.9028625488281 285.39306640625 C 315.9028625488281 288.9112548828125 315.6896362304688 292.6652221679688 311.0355224609375 292.6652221679688 C 306.3994750976563 292.6652221679688 306.0765991210938 288.779296875 306.0557861328125 285.3643188476563 C 305.9638977050781 270.8995971679688 306.00439453125 256.43359375 305.9967956542969 241.9678344726563 C 305.9957580566406 240.0498657226563 305.9957580566406 238.133056640625 305.9957580566406 236.302490234375 C 303.7477416992188 235.5342102050781 303.1490478515625 237.2049255371094 302.2582092285156 238.0701293945313 C 297.1866760253906 243.0012817382813 292.2066650390625 248.0260009765625 287.1766357421875 253.0005493164063 C 284.8963317871094 255.2552032470703 282.317626953125 256.2523803710938 279.7606201171875 253.6397705078125 C 277.2301635742188 251.0562744140625 278.2283325195313 248.4701538085938 280.4875793457031 246.2145385742188 C 289.1228332519531 237.5938720703125 297.7874450683594 229.0009155273438 306.42529296875 220.381103515625 C 307.9586181640625 218.8517456054688 309.5592956542969 218.0186767578125 311.1674194335938 218.0185546875 Z"
                                        stroke="none"
                                        fill="#fff"
                                      />
                                    </g>
                                  </g>
                                </g>
                                <text
                                  id="_"
                                  data-name="$"
                                  transform="translate(66.531 141.575)"
                                  fill="#fff"
                                  font-size="116"
                                >
                                  <tspan x="0" y="0">
                                    $
                                  </tspan>
                                </text>
                              </g>
                            </svg>
                          