<svg xmlns="http://www.w3.org/2000/svg" width="73.143" height="120.293" viewBox="0 0 73.143 120.293">
  <path id="ETH" d="M36.557,120.293C24.353,103.042,12.307,86.011.26,68.981l.188-.222c1.6.925,3.206,1.842,4.8,2.782q15.075,8.9,30.137,17.834a2.017,2.017,0,0,0,2.4-.012Q54.6,79.407,71.464,69.522a3.091,3.091,0,0,1,1.42-.508c-12.065,17.031-24.13,34.061-36.323,51.278Zm-.941-37.811Q18.285,72.137.921,61.859C.643,61.693.372,61.51,0,61.274,12.156,40.911,24.289,20.581,36.572,0,48.817,20.518,60.945,40.833,73.142,61.265c-.451.29-.857.571-1.278.82Q54.754,72.243,37.646,82.411a2.135,2.135,0,0,1-1.087.373A1.826,1.826,0,0,1,35.617,82.482ZM0,61.273H0l0,0Z"/>
</svg>
