<svg xmlns="http://www.w3.org/2000/svg" width="137.535" height="120.846" viewBox="0 0 137.535 120.846">
  <path id="MATIC" d="M61.789,45.347c0-3.6-.058-7.055.015-10.5a9.6,9.6,0,0,0-5.18-9.222c-4.611-2.648-9.111-5.483-13.664-8.235a9.416,9.416,0,0,0-10.444-.061Q25.743,21.4,18.852,25.273a9.4,9.4,0,0,0-5.214,8.9q.092,8.127,0,16.254a9.4,9.4,0,0,0,5.045,8.857C23.363,62,27.959,64.867,32.6,67.653a9.3,9.3,0,0,0,10.183.065Q68.815,52.473,94.9,37.3a9.166,9.166,0,0,1,9.822-.042q13.851,8.058,27.72,16.074a9.437,9.437,0,0,1,5.1,8.83q-.081,16.254-.008,32.508a9.294,9.294,0,0,1-5.011,8.715q-13.707,7.868-27.344,15.866a9.777,9.777,0,0,1-10.709.015q-13.234-7.827-26.61-15.413c-4.008-2.263-6.014-5.387-5.756-10.045.169-3.059,0-6.137.061-9.2a1.836,1.836,0,0,1,.665-1.368c4.115-2.448,8.273-4.826,12.423-7.216.073-.042.181-.015.488-.038v3.232c0,2.494-.008,4.988,0,7.478a8.98,8.98,0,0,0,4.757,8.285c4.857,2.794,9.68,5.652,14.548,8.423a9,9,0,0,0,9.676-.054q6.957-4.185,13.952-8.308a9.142,9.142,0,0,0,4.822-8.538c-.069-5.56-.05-11.124-.008-16.685a9.018,9.018,0,0,0-4.892-8.481c-4.7-2.686-9.364-5.43-14.049-8.146a9.527,9.527,0,0,0-10.321.05q-25.678,15.009-51.429,29.9a9.438,9.438,0,0,1-10.2.008C23.374,77.74,14.121,72.41,4.88,67.054A9.184,9.184,0,0,1,0,58.55Q.046,42.3,0,26.042a8.5,8.5,0,0,1,4.615-7.985C14.045,12.639,23.413,7.113,32.785,1.6a9.632,9.632,0,0,1,10.579-.027q13.4,7.977,26.887,15.8a9.46,9.46,0,0,1,5.172,9.072c-.1,3.4,0,6.809-.054,10.21a1.862,1.862,0,0,1-.68,1.364C70.615,40.451,66.5,42.807,62.4,45.178a3.447,3.447,0,0,1-.6.169Z" transform="translate(0 -0.007)"/>
</svg>
