<svg xmlns="http://www.w3.org/2000/svg" width="12.19" height="16" viewBox="0 0 12.19 16">
  <path id="Private_Account" data-name="Private Account" d="M17.417,8.568h-.762V7.044a3.81,3.81,0,0,0-7.619,0V8.568H8.274A1.528,1.528,0,0,0,6.75,10.092v7.619a1.528,1.528,0,0,0,1.524,1.524h9.143a1.528,1.528,0,0,0,1.524-1.524V10.092A1.528,1.528,0,0,0,17.417,8.568ZM12.845,15.5a1.524,1.524,0,1,1,1.524-1.524A1.528,1.528,0,0,1,12.845,15.5Zm2.362-6.933H10.483V7.044a2.362,2.362,0,0,1,4.724,0Z" transform="translate(-6.75 -3.234)" fill="#fff"/>
</svg>
