<?xml version="1.0" encoding="UTF-8"?>
<svg id="Layer_2" data-name="Layer 2" xmlns="http://www.w3.org/2000/svg" viewBox="0 0 384 360.06">
  <g id="Layer_1-2" data-name="Layer 1">
    <g>
      <path d="M307.92,144.11c5.9,.57,9.31-1.77,11.48-7.19,1.99-4.96,4.55-9.72,7.17-14.39,.67-1.19,2.46-1.93,3.89-2.43,1.11-.39,2.49,.06,3.72-.1,5.4-.72,9.04,.39,12.06,6.01,3.82,7.11,11.21,9.79,19.29,8.83,8.05-.96,13.78-5.44,17.02-12.96,.48-1.12,.97-2.24,1.46-3.35v-9c-.44-1-.91-1.99-1.33-3-3.47-8.29-9.73-13.01-18.64-13.4-9.08-.4-15.92,3.79-19.83,12.06-1.11,2.35-2.38,2.98-4.78,2.89-4.87-.17-9.74,0-14.62-.07-3.08-.04-5.22,1.27-6.57,4.03-2.75,5.6-5.72,11.1-8.28,16.79-1.17,2.6-2.67,3.45-5.41,3.25-3.34-.24-6.71-.06-10.54-.06,0-1.81,.01-3.39,0-4.96-.07-7.05-2.97-12.62-9.14-16.11-2.3-1.3-2.92-2.8-2.91-5.31,.09-24.49,.07-48.99,.05-73.48C281.99,12.63,269.4,.01,249.92,0,211.31,0,172.7,0,134.09,0c-19.47,0-32.08,12.63-32.09,32.14-.01,24.49-.04,48.99,.05,73.48,0,2.5-.57,4.03-2.88,5.34-6.17,3.49-9.1,9.02-9.17,16.09-.01,1.49,0,2.97,0,4.95-4.52,0-8.85,.13-13.16-.11-.85-.05-1.87-1.44-2.38-2.43-2.92-5.66-5.75-11.36-8.51-17.09-1.47-3.05-3.72-4.46-7.13-4.38-5.12,.11-10.25,.13-15.37-.06-1.05-.04-2.58-.91-3.01-1.82-4.2-8.83-11.1-13.35-20.85-13.03-8.91,.3-15.64,6.01-18.97,15.54-.11,.33-.41,.59-.62,.88v9c.39,.89,.83,1.76,1.18,2.67,3.1,8.12,10.4,13.62,18.8,13.77,9.09,.16,15.88-3.86,19.84-12.11,1-2.09,2.16-2.55,4.38-2.95,9.15-1.66,14.8,1.63,17.43,10.62,.82,2.83,2.76,5.31,3.9,8.07,1.64,3.98,4.34,5.72,8.72,5.49,5.09-.27,10.2-.06,15.52-.06v23.99c-9.84,0-19.55,.08-29.26-.13-.92-.02-2.08-1.76-2.66-2.94-3.96-7.91-12.15-12.64-20.83-11.86-8.68,.78-16.03,6.95-18.33,15.39-2.83,10.38,2.56,21.15,12.54,25.06,10.14,3.98,21.71-.32,26.32-10.18,1.3-2.79,2.8-3.45,5.6-3.39,8.49,.17,16.99,.07,25.49,.08,.25,0,.5,.06,1.05,.14v23.84c-2.08,0-4.28-.03-6.47,0-17.71,.24-13.44-2.39-21.68,13.49-1.38,2.66-2.46,5.5-4.1,7.98-.78,1.18-2.46,1.94-3.89,2.45-1.11,.39-2.49-.06-3.72,.1-5.39,.7-9.05-.37-12.07-6-3.81-7.11-11.2-9.8-19.29-8.84-8.06,.96-13.78,5.44-17.03,12.95-.48,1.12-.97,2.24-1.45,3.36v9c.49,1.12,.96,2.24,1.46,3.36,3.56,8.05,9.75,12.66,18.52,13.04,8.93,.38,15.74-3.68,19.65-11.74,1.27-2.62,2.66-3.33,5.34-3.21,4.61,.21,9.25-.03,13.87,.09,3.43,.09,5.64-1.39,7.1-4.43,2.77-5.73,5.54-11.47,8.59-17.05,.65-1.19,2.47-2.32,3.85-2.44,3.7-.34,7.44-.11,11.39-.11,.09,.96,.25,1.67,.21,2.37-.51,8.66,2.64,15.28,10.37,19.66,.99,.56,1.57,2.64,1.58,4.02,.09,29.12,.05,58.23,.08,87.35,.01,10.46,4.23,18.88,12.69,25.04,5.2,3.78,11.12,5.57,17.55,5.57,39.86,0,79.72,.07,119.58-.03,17.04-.04,30.07-13.18,30.13-30.3,.11-29.12,.06-58.23-.02-87.35,0-2.52,.67-4,2.94-5.3,6.14-3.53,9.05-9.07,9.11-16.13,.01-1.48,0-2.96,0-4.88,4.46,0,8.67-.13,12.86,.1,.9,.05,2.03,1.24,2.52,2.19,2.95,5.64,5.84,11.31,8.56,17.07,1.59,3.38,4,4.8,7.7,4.68,4.99-.16,10-.15,14.99,.05,1.04,.04,2.51,.95,2.98,1.87,4.61,8.85,12.27,13.66,20.95,12.91,9.2-.79,15.74-6.42,18.85-16.2,.11-.34,.39-.62,.59-.92v-7.5c-.44-1.15-.88-2.3-1.33-3.45-3.32-8.36-9.52-12.99-18.41-13.71-8.49-.68-16.46,3.99-19.95,11.85-1.14,2.57-2.63,2.75-5,3.18-8.88,1.59-14.27-1.66-16.84-10.37-1.01-3.42-3.14-6.5-4.72-9.76-1.34-2.77-3.51-4.04-6.59-4.01-5.59,.06-11.18,.02-16.97,.02v-24h11c5.37,0,10.75,.11,16.11-.05,2.54-.08,3.85,.61,5.01,3.13,4.46,9.7,15.43,14.19,25.47,10.8,9.85-3.32,15.94-13.64,13.97-23.69-2.04-10.45-11.28-17.84-21.85-17.12-8.26,.56-14.4,4.68-17.83,12.3-.92,2.05-1.98,2.71-4.16,2.68-9.11-.12-18.23-.05-27.64-.05v-24c4.48,0,9.09-.35,13.62,.09Zm54.81-39.07c4.91-.17,9.15,3.86,9.26,8.79,.1,4.93-3.95,9.12-8.88,9.17-4.79,.05-8.88-3.83-9.07-8.6-.19-4.94,3.76-9.18,8.69-9.35ZM20.64,122.99c-4.77-.18-8.66-4.26-8.63-9.05,.04-4.94,4.21-9.01,9.14-8.91,4.95,.1,8.97,4.31,8.82,9.23-.16,4.94-4.4,8.91-9.33,8.73Zm18.24,60.01c-4.92-.05-8.98-4.25-8.87-9.18,.11-4.79,4.12-8.74,8.9-8.78,4.94-.04,9.08,4.07,9.06,8.99-.02,4.94-4.15,9.02-9.09,8.97Zm-18.19,60.01c-4.77-.15-8.69-4.2-8.68-8.99,0-4.93,4.16-9.03,9.08-8.97,4.95,.07,9,4.25,8.87,9.17-.12,4.93-4.35,8.94-9.28,8.79ZM128.48,12.4c1.81-.38,3.72-.38,5.58-.38,38.09-.02,76.18,.33,114.26-.2,13.39-.19,23.63,8.12,21.45,23.92H114.3c-1.4-12.6,3.81-21.17,14.18-23.34Zm141.22,35.82v53.79c-1.25-.69-2.4-1.31-3.53-1.96-20.86-12.06-41.8-23.99-62.55-36.24-7.95-4.69-15.25-4.7-23.21,0-20.74,12.26-41.69,24.18-62.56,36.23-1.06,.61-2.15,1.19-3.7,2.05V48.22h155.55Zm-.68,286.93c-1.34,7.77-8.93,12.83-17.23,12.87-15.37,.07-30.74,.02-46.11,.02-23.74,0-47.49,0-71.23,0-13.44,0-20.45-7.08-20.46-20.64,0-4.97,0-9.95,0-15.18h48c0,3.89-.05,7.61,0,11.33,.11,7.41,5.1,12.42,12.55,12.47,11.62,.07,23.24,.07,34.86,0,7.48-.04,12.44-5.01,12.56-12.45,.06-3.72,.01-7.44,.01-11.34h48.31c-.36,7.65,0,15.43-1.28,22.92Zm-154.77-35.42v-53.58c1.1,.55,2.09,.97,3.02,1.51,21.2,12.23,42.46,24.35,63.54,36.78,7.73,4.56,14.86,4.45,22.53-.07,20.77-12.21,41.7-24.17,62.56-36.22,1.16-.67,2.35-1.3,4.01-2.21v53.79H114.26Zm95.44,12.5v11.55h-35.53v-11.55h35.53Zm72.3-138.23c0,15.24-.07,30.49,.05,45.73,.03,3.67-1.32,6.05-4.51,7.88-26.95,15.48-53.86,31.02-80.73,46.64-3.44,2-6.29,1.91-9.73-.1-26.53-15.45-53.12-30.8-79.79-46.03-3.83-2.19-5.4-4.85-5.38-9.29,.15-29.99,.13-59.98,.01-89.97-.02-4.13,1.43-6.71,5-8.75,26.76-15.31,53.47-30.7,80.11-46.22,3.61-2.1,6.51-2.01,10.04,.05,26.75,15.57,53.57,31.03,80.41,46.45,3.17,1.82,4.58,4.17,4.55,7.86-.11,15.24-.05,30.49-.05,45.73Zm81.01,51.05c4.95,.01,9.04,4.16,8.97,9.08-.07,4.94-4.25,8.98-9.18,8.88-4.92-.1-8.94-4.34-8.77-9.28,.16-4.78,4.21-8.7,8.99-8.69Zm-18.25-60c4.92-.15,9.14,3.89,9.22,8.82,.08,4.94-3.99,9.1-8.92,9.13-4.79,.03-8.87-3.87-9.03-8.63-.17-4.94,3.79-9.17,8.73-9.32Z"/>
      <path d="M165,125.09c0-.87,.05-1.76-.06-2.62-.42-3.25-3.02-5.61-6.11-5.4-3.3,.22-5.26,2.12-5.75,5.38-.18,1.22-.07,2.49-.07,3.74,0,23.87,0,47.74,0,71.61l-.67,.15c-.52-1.23-1.07-2.45-1.57-3.69-7.19-17.95-14.41-35.89-21.54-53.86-1.33-3.35-3.2-5.74-7.13-5.26-3.37,.41-5.08,3.04-5.08,7.56-.01,24.87-.01,49.75,0,74.62,0,4.95,2.32,7.8,6.15,7.69,3.7-.11,5.83-2.85,5.83-7.64,.02-13.25,0-26.5,0-39.75v-3.47c1.09,.96,1.58,1.94,1.98,2.95,6.62,16.57,13.23,33.14,19.85,49.71,.93,2.32,1.45,5.02,3.01,6.79,1.44,1.64,3.98,3.07,6.1,3.15,2.82,.11,4.59-2.23,5-5.16,.12-.86,.06-1.75,.06-2.62,0-34.62,0-69.25,0-103.87Z"/>
      <path d="M217.87,107.02c-7.11-4.16-14.23-8.31-21.41-12.36-6.7-3.79-16.45,1.89-16.46,9.57-.02,46.74-.01,93.49,0,140.23,0,4.75,2.21,7.49,5.93,7.53,3.73,.04,6.04-2.73,6.05-7.42,.02-18.5,0-37,0-55.49v-6.06c6.86,0,13.22,.02,19.57,0,4.68-.02,7.45-2.34,7.39-6.08-.05-3.73-2.79-5.88-7.55-5.91-2.87-.02-5.75,0-8.62,0h-10.49V106.13c6.79,3.92,13.14,7.61,19.52,11.24,4.05,2.3,7.59,1.63,9.41-1.68,1.75-3.18,.57-6.36-3.36-8.67Z"/>
      <path d="M266.99,135.48c-9.98-5.93-20.04-11.74-30.16-17.43-3.08-1.73-6.44-.5-8.05,2.4-1.53,2.76-.78,5.91,2.09,7.85,1.96,1.33,3.99,2.61,6.15,3.56,2.43,1.07,3.05,2.67,3.05,5.24-.09,27.25-.06,54.5-.06,81.76,0,1.25-.11,2.52,.07,3.74,.5,3.26,2.46,5.15,5.76,5.37,3.09,.21,5.69-2.17,6.09-5.42,.14-1.11,.07-2.25,.07-3.37,0-24.63,0-49.25,0-73.88v-4.55c1.87,1.01,3.26,1.75,4.64,2.51,1.42,.79,2.79,1.68,4.24,2.39,3.26,1.59,6.54,.74,8.2-2.04,1.7-2.85,1.04-6.27-2.09-8.13Z"/>
    </g>
  </g>
</svg>