   <svg
                                  xmlns="http://www.w3.org/2000/svg"
                                  width="216.2"
                                  height="190.388"
                                  viewBox="0 0 226.2 200.388"
                                >
                                  <g
                                    id="Group_1219"
                                    data-name="Group 1219"
                                    transform="translate(0.2 -3.913)"
                                  >
                                    <g
                                      id="Group_1215"
                                      data-name="Group 1215"
                                      transform="translate(0 0)"
                                    >
                                      <g
                                        id="Group_3"
                                        data-name="Group 3"
                                        transform="translate(0 0)"
                                      >
                                        <path
                                          id="Path_1"
                                          data-name="Path 1"
                                          d="M272.782,431.842q-31.084,0-62.167-.007c-23.133-.029-37.7-12.773-38.018-35.4q-.916-64.568,0-129.156c.326-22.792,14.642-35.351,37.933-35.383q48.037-.067,96.074-.008a54.613,54.613,0,0,1,5.645.145c3.515.371,5.726,2.329,5.722,5.832s-2.295,5.447-5.737,5.879a51.126,51.126,0,0,1-6.348.179q-46.626.015-93.25.018c-18.886.02-27.124,8.09-27.131,26.518q-.021,61.818.005,123.638c.01,17.073,8.442,25.586,25.943,25.643q61.107.2,122.213,0c16.838-.052,25.141-8.332,25.2-24.7.076-21.182.014-42.363.034-63.545a56.582,56.582,0,0,1,.268-6.893c.462-3.719,1.986-6.857,6.455-6.818,4.9.042,6.341,3.387,6.345,7.479.026,25.325.464,50.663-.2,75.971-.444,16.844-15.756,30.359-33.288,30.525-21.9.21-43.8.051-65.7.051Z"
                                          transform="translate(-172.137 -227.763)"
                                          fill="#7f7f84"
                                          stroke="#fff"
                                          stroke-width="0.4"
                                        />
                                        <g
                                          id="Path_3"
                                          data-name="Path 3"
                                          transform="translate(-117.896 -213.905)"
                                          fill="#7f7f84"
                                        >
                                          <path
                                            d="M 311.1673583984375 292.4651489257813 C 309.6473083496094 292.4651489257813 308.099365234375 291.6899108886719 306.5664672851563 290.1609802246094 C 302.3806762695313 285.9839172363281 298.1184997558594 281.743408203125 293.9966430664063 277.6425476074219 C 289.6127014160156 273.2809143066406 285.0794982910156 268.7707824707031 280.6288452148438 264.32763671875 C 279.4236755371094 263.1243896484375 278.7158203125 261.9528503417969 278.5250244140625 260.8455505371094 C 278.3058166503906 259.573486328125 278.7695922851563 258.3415222167969 279.9034729003906 257.1838989257813 C 280.8749084472656 256.1913146972656 281.9044189453125 255.6880798339844 282.9634704589844 255.6880798339844 C 284.2314758300781 255.6880798339844 285.6016540527344 256.4071655273438 287.0359802246094 257.8253784179688 C 288.8021850585938 259.5721130371094 290.591796875 261.3544616699219 292.3224487304688 263.078125 C 295.5204772949219 266.2632141113281 298.827392578125 269.5567321777344 302.1187744140625 272.7569885253906 C 302.2941284179688 272.9272766113281 302.4593200683594 273.1325378417969 302.6342468261719 273.3498229980469 C 303.1731262207031 274.0192565917969 303.7839050292969 274.7780456542969 304.9372253417969 274.7779541015625 C 305.2797546386719 274.7779235839844 305.6576232910156 274.7081298828125 306.0603637695313 274.5704650878906 L 306.1956787109375 274.5242309570313 L 306.1956787109375 274.3812255859375 C 306.1956787109375 272.5506896972656 306.1956787109375 270.6339111328125 306.1967468261719 268.7160034179688 C 306.1987609863281 264.8608093261719 306.1973571777344 260.941162109375 306.1959838867188 257.1505737304688 C 306.1921997070313 246.7178497314453 306.1883239746094 235.9299468994141 306.2557373046875 225.3206939697266 C 306.2662658691406 223.5919036865234 306.3631896972656 221.8082427978516 306.99560546875 220.4740447998047 C 307.7150268554688 218.9563446044922 309.0364685058594 218.2185668945313 311.0354614257813 218.2185668945313 C 313.04296875 218.2185668945313 314.3505249023438 218.9383239746094 315.0327758789063 220.4190063476563 C 315.6510620117188 221.7608337402344 315.7027893066406 223.5614318847656 315.7027893066406 225.2906799316406 L 315.7036743164063 231.6897430419922 C 315.7049255371094 240.6706237792969 315.7061462402344 249.6515045166016 315.7079162597656 258.6326599121094 L 315.7079162597656 276.0336303710938 L 315.7079162597656 276.4818725585938 L 316.0414733886719 276.1824645996094 C 316.813232421875 275.4898681640625 317.4758605957031 274.9059448242188 318.0605163574219 274.3907470703125 C 319.1301879882813 273.4481506347656 319.97509765625 272.7036437988281 320.7613830566406 271.9304504394531 C 322.7434387207031 269.9841918945313 324.7474670410156 267.9941711425781 326.6854553222656 266.0696716308594 C 329.4360046386719 263.3383178710938 332.2801818847656 260.5139465332031 335.1087951660156 257.7680053710938 C 336.4998779296875 256.4168701171875 337.8671875 255.7318115234375 339.1726989746094 255.7318115234375 C 340.27978515625 255.7318115234375 341.3356018066406 256.2391967773438 342.3108215332031 257.2399291992188 C 343.339111328125 258.2945861816406 343.7987670898438 259.4591674804688 343.677001953125 260.7012939453125 C 343.5650634765625 261.8428649902344 342.9528503417969 263.0030517578125 341.9065551757813 264.0563659667969 C 332.1741943359375 273.84716796875 323.4274291992188 282.5221252441406 315.1664733886719 290.576904296875 C 313.8812561035156 291.8298645019531 312.5357666015625 292.4651489257813 311.1673583984375 292.4651489257813 Z"
                                            stroke="none"
                                          />
                                          <path
                                            d="M 311.1673583984375 292.2651672363281 C 312.4817504882813 292.2651672363281 313.7802734375 291.6489562988281 315.02685546875 290.4336853027344 C 323.2870483398438 282.3796691894531 332.0330810546875 273.7054443359375 341.7646484375 263.9154357910156 C 342.7781372070313 262.8951416015625 343.3705749511719 261.7769775390625 343.4779357910156 260.6817932128906 C 343.5936889648438 259.5010681152344 343.1528625488281 258.3900451660156 342.1675720214844 257.3795166015625 C 341.2314453125 256.4188842773438 340.2238159179688 255.9318084716797 339.1726989746094 255.9318084716797 C 337.9210205078125 255.9318084716797 336.6006164550781 256.5978698730469 335.2481079101563 257.9115295410156 C 332.4202880859375 260.6566772460938 329.5765380859375 263.4806213378906 326.8263854980469 266.2115783691406 C 324.88818359375 268.1362915039063 322.8839721679688 270.1264953613281 320.901611328125 272.0730590820313 C 320.1114196777344 272.8500671386719 319.2647094726563 273.59619140625 318.1927490234375 274.5408020019531 C 317.6084289550781 275.0556945800781 316.9461364746094 275.6393127441406 316.1750793457031 276.3313293457031 L 315.5079040527344 276.9300842285156 L 315.5079040527344 258.6327209472656 C 315.5061645507813 249.6515502929688 315.5049133300781 240.670654296875 315.5036926269531 231.6897735595703 L 315.5028076171875 225.2906799316406 C 315.5028076171875 223.5836181640625 315.4524841308594 221.8077850341797 314.8511352539063 220.5027160644531 C 314.1959533691406 219.080810546875 312.9834899902344 218.4185638427734 311.0354614257813 218.4185638427734 C 309.1216125488281 218.4185638427734 307.8592834472656 219.1189422607422 307.1763305664063 220.5597229003906 C 306.5606079101563 221.8586883544922 306.4661254882813 223.6161651611328 306.4557189941406 225.3219757080078 C 306.3883361816406 235.9305419921875 306.3922119140625 246.7180938720703 306.3959655761719 257.1504821777344 C 306.3973388671875 260.9411315917969 306.3987731933594 264.86083984375 306.396728515625 268.7160949707031 C 306.3956909179688 270.6340026855469 306.3956909179688 272.5507202148438 306.3956909179688 274.3812255859375 L 306.3956909179688 274.667236328125 L 306.1250305175781 274.7597351074219 C 305.7014465332031 274.9045104980469 305.3017883300781 274.9779052734375 304.937255859375 274.9779357910156 C 303.6881713867188 274.9780578613281 303.0174255371094 274.144775390625 302.4784545898438 273.4752502441406 C 302.3074951171875 273.2628479003906 302.14599609375 273.0622253417969 301.9793395996094 272.9003601074219 C 298.6871032714844 269.6992797851563 295.3797607421875 266.4053344726563 292.1813354492188 263.2198486328125 C 290.4507751464844 261.4962768554688 288.6612854003906 259.7140502929688 286.8953552246094 257.9676208496094 C 285.4998168945313 256.5877380371094 284.1769104003906 255.8880767822266 282.9634704589844 255.8880767822266 C 281.9602355957031 255.8880767822266 280.9788208007813 256.37109375 280.0463562011719 257.3238525390625 C 278.00048828125 259.41259765625 278.2372436523438 261.6572570800781 280.7701416015625 264.1860961914063 C 285.220703125 268.6291198730469 289.7538452148438 273.1391906738281 294.1377258300781 277.5007629394531 C 298.2596130371094 281.6016845703125 302.5218505859375 285.8422546386719 306.7077026367188 290.0193786621094 C 308.2017517089844 291.5095825195313 309.7022094726563 292.2651672363281 311.1673583984375 292.2651672363281 M 311.1673583984375 292.6651611328125 C 309.5592651367188 292.6651611328125 307.9585571289063 291.8319396972656 306.4252319335938 290.3025817871094 C 297.7874145507813 281.6827697753906 289.122802734375 273.08984375 280.487548828125 264.4691772460938 C 278.2283020019531 262.2135620117188 277.2301330566406 259.62744140625 279.7605895996094 257.0439453125 C 282.3175659179688 254.4313659667969 284.8963012695313 255.4284973144531 287.1766052246094 257.6831665039063 C 292.2066345214844 262.65771484375 297.1866455078125 267.6824340820313 302.2581787109375 272.6135864257813 C 303.1490173339844 273.478759765625 303.7474670410156 275.1495056152344 305.9956970214844 274.3812255859375 C 305.9956970214844 272.5506591796875 305.9956970214844 270.6338500976563 305.9967346191406 268.7158813476563 C 306.0043334960938 254.2501525878906 305.9638366699219 239.7841491699219 306.0557250976563 225.3194274902344 C 306.0765380859375 221.9044799804688 306.3994140625 218.0185546875 311.0354614257813 218.0185546875 C 315.6895751953125 218.0185546875 315.9028015136719 221.7725219726563 315.9028015136719 225.2906799316406 C 315.9043579101563 236.4045715332031 315.9057312011719 247.5184020996094 315.9078979492188 258.6326293945313 C 315.9078979492188 264.0292358398438 315.9078979492188 269.425537109375 315.9078979492188 276.0336303710938 C 318.1115112304688 274.0559692382813 319.41650390625 272.972412109375 320.6211547851563 271.787841796875 C 325.4161987304688 267.0794677734375 330.1469116210938 262.30615234375 334.969482421875 257.62451171875 C 337.2567443847656 255.4029388427734 339.9579772949219 254.5389862060547 342.4540405273438 257.100341796875 C 344.6947021484375 259.3984375 344.1405639648438 262.0911560058594 342.0484313964844 264.1973266601563 C 333.1974792480469 273.1014404296875 324.2952270507813 281.955322265625 315.3060913085938 290.7200927734375 C 313.9459228515625 292.0461120605469 312.5539245605469 292.6651611328125 311.1673583984375 292.6651611328125 Z"
                                            stroke="none"
                                            fill="#fff"
                                          />
                                        </g>
                                      </g>
                                    </g>
                                    <text
                                      id="_"
                                      data-name="$"
                                      transform="translate(66.531 141.575)"
                                      fill="#7f7f84"
                                      stroke="#fff"
                                      font-size="116"
                                    >
                                      <tspan x="5" y="5">
                                        $
                                      </tspan>
                                    </text>
                                  </g>
                                </svg>
                             