<svg xmlns="http://www.w3.org/2000/svg" xmlns:xlink="http://www.w3.org/1999/xlink" width="64" height="64" viewBox="0 0 64 64">
  <defs>
    <linearGradient id="linear-gradient" x1="0.5" x2="0.5" y2="1" gradientUnits="objectBoundingBox">
      <stop offset="0" stop-color="#fdf100"/>
      <stop offset="1" stop-color="#fd9200"/>
    </linearGradient>
  </defs>
  <g id="Group_10344" data-name="Group 10344" transform="translate(-928 -973)">
    <g id="Ellipse_584" data-name="Ellipse 584" transform="translate(932 977)" fill="#411410" stroke="rgba(255,255,255,0.2)" stroke-width="4">
      <circle cx="28" cy="28" r="28" stroke="none"/>
      <circle cx="28" cy="28" r="30" fill="none"/>
    </g>
    <path id="Path_10979" data-name="Path 10979" d="M165.986,41.764a.446.446,0,0,0-.272-.238l-.037-.01c-.027-.007-.054-.01-.084-.017a33.113,33.113,0,0,1-4.569-1.247A29.309,29.309,0,0,1,156,37.886c-.8-.473-1.582-.985-2.336-1.532a.682.682,0,0,0-.4-.171c-.054,0-.111,0-.164,0a.98.98,0,0,0-.607.278c-.389.285-.784.563-1.19.828a28.088,28.088,0,0,1-4.87,2.541,34.2,34.2,0,0,1-5.705,1.693.507.507,0,0,0-.369.486V46.1c0,1.378,0,2.755,0,4.13a14.614,14.614,0,0,0,3.174,9.037,14.391,14.391,0,0,0,3.51,3.158c.446.285.9.563,1.344.841q2.147,1.342,4.29,2.682l.1.06a.5.5,0,0,0,.506,0q1.931-1.171,3.858-2.343c.61-.369,1.22-.741,1.827-1.11a15.071,15.071,0,0,0,2.846-2.212,14.583,14.583,0,0,0,4.113-8.4,19,19,0,0,0,.121-2.47V42a.408.408,0,0,0-.057-.235Zm-6.372,6.04-.915.915L154.716,52.7q-1.247,1.252-2.5,2.5a1.018,1.018,0,0,1-1.421,0l-.5-.5-3.5-3.5a1,1,0,0,1,1.421-1.421c.168.168.332.332.5.5l2.792,2.792,4.183-4.183,2.5-2.5a1.021,1.021,0,0,1,1.421,0,1.008,1.008,0,0,1,0,1.418Z" transform="translate(806.645 953.818)" stroke="rgba(0,0,0,0)" stroke-width="1" fill="url(#linear-gradient)"/>
  </g>
</svg>
