<svg xmlns="http://www.w3.org/2000/svg" xmlns:xlink="http://www.w3.org/1999/xlink" width="64" height="64" viewBox="0 0 64 64">
  <defs>
    <linearGradient id="linear-gradient" x1="0.5" x2="0.5" y2="1" gradientUnits="objectBoundingBox">
      <stop offset="0" stop-color="#fdf100"/>
      <stop offset="1" stop-color="#fd9200"/>
    </linearGradient>
  </defs>
  <g id="Group_10345" data-name="Group 10345" transform="translate(-1256 -973)">
    <g id="Ellipse_585" data-name="Ellipse 585" transform="translate(1260 977)" fill="#411410" stroke="rgba(255,255,255,0.2)" stroke-width="4">
      <circle cx="28" cy="28" r="28" stroke="none"/>
      <circle cx="28" cy="28" r="30" fill="none"/>
    </g>
    <path id="Path_10976" data-name="Path 10976" d="M145.909,41.408,143.226,22.4a2.249,2.249,0,0,0-2.242-1.926h-1.389a6.648,6.648,0,0,0-13.292,0h-1.389a2.25,2.25,0,0,0-2.242,1.957L120.02,41.408A2.268,2.268,0,0,0,122.262,44H143.7a2.248,2.248,0,0,0,2.21-2.589ZM132.965,16.687a3.959,3.959,0,0,1,3.946,3.789h-7.893A3.981,3.981,0,0,1,132.965,16.687Zm5.115,14.018-4.988,5.241a1.531,1.531,0,0,1-2.273,0l-2.968-3.126a1.586,1.586,0,0,1,2.3-2.179l1.831,1.926,3.82-4.041a1.574,1.574,0,1,1,2.273,2.178Z" transform="translate(1155.002 975.996)" stroke="rgba(0,0,0,0)" stroke-width="1" fill="url(#linear-gradient)"/>
  </g>
</svg>
