<svg xmlns="http://www.w3.org/2000/svg" xmlns:xlink="http://www.w3.org/1999/xlink" width="64" height="64" viewBox="0 0 64 64">
  <defs>
    <linearGradient id="linear-gradient" x1="0.5" x2="0.5" y2="1" gradientUnits="objectBoundingBox">
      <stop offset="0" stop-color="#fdf100"/>
      <stop offset="1" stop-color="#fd9200"/>
    </linearGradient>
  </defs>
  <g id="Group_10343" data-name="Group 10343" transform="translate(-600 -973)">
    <g id="Ellipse_583" data-name="Ellipse 583" transform="translate(604 977)" fill="#411410" stroke="rgba(255,255,255,0.2)" stroke-width="4">
      <circle cx="28" cy="28" r="28" stroke="none"/>
      <circle cx="28" cy="28" r="30" fill="none"/>
    </g>
    <g id="Group_10242" data-name="Group 10242" transform="translate(-21705.16 1450)">
      <path id="Path_10974" data-name="Path 10974" d="M201.222,37.706c0,3.053-.716,4.787-3.769,5.654a7.834,7.834,0,0,0-15.6,0c-3.053-.867-3.769-2.6-3.769-5.654,0-3.543,2.827-8.33,6.9-10.591a7.387,7.387,0,1,1,9.347,0C198.4,29.377,201.222,34.163,201.222,37.706Z" transform="translate(22147.08 -476.999)" fill="url(#linear-gradient)"/>
      <path id="Path_10975" data-name="Path 10975" d="M270.087,375.2a5.748,5.748,0,1,0,5.729,5.767A5.767,5.767,0,0,0,270.087,375.2Zm2.337,6.52h-1.545v1.545a.792.792,0,1,1-1.583,0V381.72h-1.545a.792.792,0,0,1,0-1.583h1.545v-1.545a.792.792,0,1,1,1.583,0v1.545h1.545a.8.8,0,0,1,.792.792A.822.822,0,0,1,272.423,381.72Z" transform="translate(22066.645 -813.89)" fill="url(#linear-gradient)"/>
    </g>
  </g>
</svg>
