<svg xmlns="http://www.w3.org/2000/svg" xmlns:xlink="http://www.w3.org/1999/xlink" width="64" height="64" viewBox="0 0 64 64">
  <defs>
    <linearGradient id="linear-gradient" x1="0.5" x2="0.5" y2="1" gradientUnits="objectBoundingBox">
      <stop offset="0" stop-color="#fdf100"/>
      <stop offset="1" stop-color="#fd9200"/>
    </linearGradient>
  </defs>
  <g id="Group_10346" data-name="Group 10346" transform="translate(-1584 -973)">
    <g id="Ellipse_586" data-name="Ellipse 586" transform="translate(1588 977)" fill="#411410" stroke="rgba(255,255,255,0.2)" stroke-width="4">
      <circle cx="28" cy="28" r="28" stroke="none"/>
      <circle cx="28" cy="28" r="30" fill="none"/>
    </g>
    <path id="Path_10977" data-name="Path 10977" d="M40.137,27.568H29.978V25.815c2.591,0,3.063-2.775,3.265-3.961h3.639a7.469,7.469,0,0,0,.767,2.545,2.7,2.7,0,0,0,2.487,1.415v1.754Zm-3.292-6.984h-3.56c-.231-1.826-1.334-3.426-2.611-5.278a30.382,30.382,0,0,1-3.4-5.925A24.371,24.371,0,0,1,25.555-.03h19a24.437,24.437,0,0,1-1.711,9.409,30.412,30.412,0,0,1-3.4,5.925c-1.275,1.852-2.376,3.452-2.607,5.278ZM34.927,10.169l2.35,1.257L36.806,8.8l1.921-1.845-2.639-.365L34.927,4.2l-1.163,2.4-2.637.365L33.048,8.8l-.47,2.623,2.35-1.257ZM27.3,12.57h0a12.087,12.087,0,0,1-6.121-4.68,14.708,14.708,0,0,1-1.769-3.474A15.729,15.729,0,0,1,18.571.583h5.2c.051.685.109,1.268.177,1.784H20.51a11.276,11.276,0,0,0,5.668,7.938c.331.738.7,1.479,1.12,2.263Zm15.21,0c.424-.787.79-1.527,1.12-2.263A11.273,11.273,0,0,0,49.3,2.369H45.862c.068-.517.126-1.1.176-1.784h5.2A15.733,15.733,0,0,1,50.4,4.418a14.71,14.71,0,0,1-1.768,3.474,12.084,12.084,0,0,1-6.122,4.679Z" transform="translate(1581.429 991.031)" stroke="rgba(0,0,0,0)" stroke-width="1" fill="url(#linear-gradient)"/>
  </g>
</svg>
