<svg xmlns="http://www.w3.org/2000/svg" width="84" height="84" viewBox="0 0 84 84">
  <g id="Group_29640" data-name="Group 29640" transform="translate(-906 -2586)">
    <g id="Path_26782" data-name="Path 26782" transform="translate(908 2588)" fill="none">
      <path d="M40,0A40,40,0,1,1,0,40,40,40,0,0,1,40,0Z" stroke="none"/>
      <path d="M 40 0 C 17.90861129760742 0 0 17.90861129760742 0 40 C 0 62.09138870239258 17.90861129760742 80 40 80 C 62.09138870239258 80 80 62.09138870239258 80 40 C 80 17.90861129760742 62.09138870239258 0 40 0 M 40 -2 C 45.66908264160156 -2 51.16964721679688 -0.8892440795898438 56.34890747070312 1.3013916015625 C 61.35048294067383 3.4168701171875 65.8419189453125 6.444953918457031 69.698486328125 10.30152130126953 C 73.55504608154297 14.1580810546875 76.5831298828125 18.64951705932617 78.6986083984375 23.65109252929688 C 80.88924407958984 28.83035278320312 82 34.33091735839844 82 40 C 82 45.66908264160156 80.88924407958984 51.16964721679688 78.6986083984375 56.34890747070312 C 76.5831298828125 61.35048294067383 73.55504608154297 65.8419189453125 69.698486328125 69.698486328125 C 65.8419189453125 73.55504608154297 61.35048294067383 76.5831298828125 56.34890747070312 78.6986083984375 C 51.16964721679688 80.88924407958984 45.66908264160156 82 40 82 C 34.33091735839844 82 28.83035278320312 80.88924407958984 23.65109252929688 78.6986083984375 C 18.64951705932617 76.5831298828125 14.1580810546875 73.55504608154297 10.30152130126953 69.698486328125 C 6.444953918457031 65.8419189453125 3.4168701171875 61.35048294067383 1.3013916015625 56.34890747070312 C -0.8892440795898438 51.16964721679688 -2 45.66908264160156 -2 40 C -2 34.33091735839844 -0.8892440795898438 28.83035278320312 1.3013916015625 23.65109252929688 C 3.4168701171875 18.64951705932617 6.444953918457031 14.1580810546875 10.30152130126953 10.30152130126953 C 14.1580810546875 6.444953918457031 18.64951705932617 3.4168701171875 23.65109252929688 1.3013916015625 C 28.83035278320312 -0.8892440795898438 34.33091735839844 -2 40 -2 Z" stroke="none" fill="#fff"/>
    </g>
    <g id="Group_10569" data-name="Group 10569" transform="translate(-1136.26 -275.712)">
      <path id="Path_11922" data-name="Path 11922" d="M460.488,276.64a5.21,5.21,0,0,0,0,10.421,5.345,5.345,0,0,0,5.337-5.21A5.429,5.429,0,0,0,460.488,276.64Z" transform="translate(1640.441 2626.73)" fill="#fff"/>
      <path id="Path_11923" data-name="Path 11923" d="M157.1,276.64a5.345,5.345,0,0,0-5.337,5.21,5.274,5.274,0,0,0,10.548,0A5.077,5.077,0,0,0,157.1,276.64Z" transform="translate(1909.521 2626.73)" fill="#fff"/>
      <path id="Path_11924" data-name="Path 11924" d="M141.435,202.574l-.508-.508c-3.177-1.271-5.718-4.066-13.47-4.829a8.869,8.869,0,0,1-2.415-.762c-14.233-7.879-28.592-.508-31.642-.508H88.952L87.3,192.281a1.4,1.4,0,0,0-1.271-.762l-3.813.381a1.281,1.281,0,0,0-1.143,1.4,1.382,1.382,0,0,0,1.4,1.143l2.923-.254.89,2.16a3.233,3.233,0,0,0-1.525,1.4c-.127.636-3.177,4.32-.762,8.133a8.371,8.371,0,0,0,2.923,2.669,9.87,9.87,0,0,1-.254-2.033,7.816,7.816,0,0,1,15.631,0,9.9,9.9,0,0,1-.508,2.8h19.7a6.84,6.84,0,0,1-.508-2.8,7.783,7.783,0,0,1,7.752-7.752,7.978,7.978,0,0,1,7.879,7.752,9.9,9.9,0,0,1-.508,2.8h1.652a4.474,4.474,0,0,0,3.684-6.735Zm-36.09-3.431-6.227-2.033a48.959,48.959,0,0,1,6.227-1.143Zm13.47.636H107.886v-4.066c5.846-.636,8.768-.762,14.614,2.287A5.229,5.229,0,0,1,118.815,199.779Z" transform="translate(1972.203 2702.194)" fill="#fff"/>
    </g>
  </g>
</svg>
