<svg xmlns="http://www.w3.org/2000/svg" width="84" height="84" viewBox="0 0 84 84">
  <g id="Group_29639" data-name="Group 29639" transform="translate(-634 -2586)">
    <g id="Path_26788" data-name="Path 26788" transform="translate(636 2588)" fill="none">
      <path d="M40,0A40,40,0,1,1,0,40,40,40,0,0,1,40,0Z" stroke="none"/>
      <path d="M 40 0 C 17.90861129760742 0 0 17.90861129760742 0 40 C 0 62.09138870239258 17.90861129760742 80 40 80 C 62.09138870239258 80 80 62.09138870239258 80 40 C 80 17.90861129760742 62.09138870239258 0 40 0 M 40 -2 C 45.66908264160156 -2 51.16964721679688 -0.8892440795898438 56.34890747070312 1.3013916015625 C 61.35048294067383 3.4168701171875 65.8419189453125 6.444953918457031 69.698486328125 10.30152130126953 C 73.55504608154297 14.1580810546875 76.5831298828125 18.64951705932617 78.6986083984375 23.65109252929688 C 80.88924407958984 28.83035278320312 82 34.33091735839844 82 40 C 82 45.66908264160156 80.88924407958984 51.16964721679688 78.6986083984375 56.34890747070312 C 76.5831298828125 61.35048294067383 73.55504608154297 65.8419189453125 69.698486328125 69.698486328125 C 65.8419189453125 73.55504608154297 61.35048294067383 76.5831298828125 56.34890747070312 78.6986083984375 C 51.16964721679688 80.88924407958984 45.66908264160156 82 40 82 C 34.33091735839844 82 28.83035278320312 80.88924407958984 23.65109252929688 78.6986083984375 C 18.64951705932617 76.5831298828125 14.1580810546875 73.55504608154297 10.30152130126953 69.698486328125 C 6.444953918457031 65.8419189453125 3.4168701171875 61.35048294067383 1.3013916015625 56.34890747070312 C -0.8892440795898438 51.16964721679688 -2 45.66908264160156 -2 40 C -2 34.33091735839844 -0.8892440795898438 28.83035278320312 1.3013916015625 23.65109252929688 C 3.4168701171875 18.64951705932617 6.444953918457031 14.1580810546875 10.30152130126953 10.30152130126953 C 14.1580810546875 6.444953918457031 18.64951705932617 3.4168701171875 23.65109252929688 1.3013916015625 C 28.83035278320312 -0.8892440795898438 34.33091735839844 -2 40 -2 Z" stroke="none" fill="#fff"/>
    </g>
    <g id="Group_10536" data-name="Group 10536" transform="translate(-8765.475 -1371)">
      <path id="Path_11341" data-name="Path 11341" d="M273.474,197.147a6.323,6.323,0,1,1-6.323-6.323,6.323,6.323,0,0,1,6.323,6.323" transform="translate(9174.323 3801.853)" fill="#fff"/>
      <path id="Path_11342" data-name="Path 11342" d="M446.7,31.669A3.669,3.669,0,1,1,443.033,28a3.669,3.669,0,0,1,3.669,3.669" transform="translate(9008.579 3953)" fill="#fff"/>
      <path id="Path_11343" data-name="Path 11343" d="M403.516,136.25a5.239,5.239,0,0,1-6.794,0,7.8,7.8,0,0,0-3.546,2.9,7.912,7.912,0,0,1,4.519,5.043c1.04.083,1.95.1,2.426.1,1.572,0,7.862-.23,7.862-2.184,0-2.418-1.818-4.749-4.467-5.865Z" transform="translate(9051.491 3852.499)" fill="#fff"/>
      <path id="Path_11344" data-name="Path 11344" d="M164.483,313.889a3.669,3.669,0,1,1-3.669-3.669,3.669,3.669,0,0,1,3.669,3.669" transform="translate(9270.523 3690.977)" fill="#fff"/>
      <path id="Path_11345" data-name="Path 11345" d="M105.868,426.512c1.572,0,7.863-.231,7.863-2.184,0-2.422-1.817-4.752-4.465-5.867a5.235,5.235,0,0,1-6.794,0c-2.648,1.115-4.465,3.445-4.465,5.867,0,1.953,6.29,2.184,7.863,2.184Z" transform="translate(9325.469 3590.488)" fill="#fff"/>
      <path id="Path_11346" data-name="Path 11346" d="M401.222,310.23h-5.855a.5.5,0,0,0-.5.5v1.771a.5.5,0,0,0,.5.5h5.855a4.963,4.963,0,0,0,4.964-4.963v-3.912h3.164a.2.2,0,0,0,.141-.341l-4.414-4.415a.4.4,0,0,0-.561,0l-4.415,4.415a.2.2,0,0,0,.141.341h3.164v3.912a2.184,2.184,0,0,1-2.184,2.184Z" transform="translate(9049.925 3701.235)" fill="#fff"/>
      <path id="Path_11347" data-name="Path 11347" d="M98.064,76.077l4.414,4.415a.4.4,0,0,0,.561,0l4.415-4.415a.2.2,0,0,0-.141-.341h-3.164V71.824a2.184,2.184,0,0,1,2.184-2.184h5.855a.5.5,0,0,0,.5-.5V67.364a.5.5,0,0,0-.5-.5h-5.855a4.963,4.963,0,0,0-4.963,4.963v3.912H98.205a.2.2,0,0,0-.141.341Z" transform="translate(9325.469 3916.895)" fill="#fff"/>
    </g>
  </g>
</svg>
