<svg xmlns="http://www.w3.org/2000/svg" width="84" height="84" viewBox="0 0 84 84">
  <g id="Group_29641" data-name="Group 29641" transform="translate(-1180 -2586)">
    <g id="Path_26781" data-name="Path 26781" transform="translate(1182 2588)" fill="none">
      <path d="M40,0A40,40,0,1,1,0,40,40,40,0,0,1,40,0Z" stroke="none"/>
      <path d="M 40 0 C 17.90861129760742 0 0 17.90861129760742 0 40 C 0 62.09138870239258 17.90861129760742 80 40 80 C 62.09138870239258 80 80 62.09138870239258 80 40 C 80 17.90861129760742 62.09138870239258 0 40 0 M 40 -2 C 45.66908264160156 -2 51.16964721679688 -0.8892440795898438 56.34890747070312 1.3013916015625 C 61.35048294067383 3.4168701171875 65.8419189453125 6.444953918457031 69.698486328125 10.30152130126953 C 73.55504608154297 14.1580810546875 76.5831298828125 18.64951705932617 78.6986083984375 23.65109252929688 C 80.88924407958984 28.83035278320312 82 34.33091735839844 82 40 C 82 45.66908264160156 80.88924407958984 51.16964721679688 78.6986083984375 56.34890747070312 C 76.5831298828125 61.35048294067383 73.55504608154297 65.8419189453125 69.698486328125 69.698486328125 C 65.8419189453125 73.55504608154297 61.35048294067383 76.5831298828125 56.34890747070312 78.6986083984375 C 51.16964721679688 80.88924407958984 45.66908264160156 82 40 82 C 34.33091735839844 82 28.83035278320312 80.88924407958984 23.65109252929688 78.6986083984375 C 18.64951705932617 76.5831298828125 14.1580810546875 73.55504608154297 10.30152130126953 69.698486328125 C 6.444953918457031 65.8419189453125 3.4168701171875 61.35048294067383 1.3013916015625 56.34890747070312 C -0.8892440795898438 51.16964721679688 -2 45.66908264160156 -2 40 C -2 34.33091735839844 -0.8892440795898438 28.83035278320312 1.3013916015625 23.65109252929688 C 3.4168701171875 18.64951705932617 6.444953918457031 14.1580810546875 10.30152130126953 10.30152130126953 C 14.1580810546875 6.444953918457031 18.64951705932617 3.4168701171875 23.65109252929688 1.3013916015625 C 28.83035278320312 -0.8892440795898438 34.33091735839844 -2 40 -2 Z" stroke="none" fill="#fff"/>
    </g>
    <g id="Group_10539" data-name="Group 10539" transform="translate(-8319.567 -1536)">
      <path id="Path_11364" data-name="Path 11364" d="M203.38,89.344h35.392v5.52H203.38Z" transform="translate(9320.188 4064.6)" fill="#fff"/>
      <path id="Path_11365" data-name="Path 11365" d="M220.61,152.47h11.132v19.692H220.61Z" transform="translate(9305.037 4009.093)" fill="#fff"/>
      <path id="Path_11366" data-name="Path 11366" d="M330.14,152.47h4.8v19.692h-4.8Z" transform="translate(9208.727 4009.093)" fill="#fff"/>
      <path id="Path_11367" data-name="Path 11367" d="M387.16,152.47h11.132v19.692H387.16Z" transform="translate(9158.589 4009.093)" fill="#fff"/>
      <path id="Path_11368" data-name="Path 11368" d="M295.056,29.388a3.686,3.686,0,0,0-5.581-4.782,10.57,10.57,0,0,0-1.382,1.884,1.1,1.1,0,0,1-1.9,0,10.228,10.228,0,0,0-1.382-1.884,3.686,3.686,0,0,0-5.581,4.782Z" transform="translate(9254.123 4122.478)" fill="#fff"/>
    </g>
  </g>
</svg>
