<svg xmlns="http://www.w3.org/2000/svg" width="376.469" height="459.841" viewBox="0 0 376.469 459.841">
  <g id="Group_10240" data-name="Group 10240" transform="translate(0 0)">
    <g id="Group_9804" data-name="Group 9804" transform="translate(0 23.704)">
      <g id="Group_9767" data-name="Group 9767" transform="translate(0 21.629)">
        <path id="Path_10859" data-name="Path 10859" d="M264.97,216.417a10.91,10.91,0,0,0,.547-21.7A11.349,11.349,0,0,0,252.2,177.78a13.583,13.583,0,0,0-22.21-7.08,15.275,15.275,0,0,0-18.541,3.167,10.862,10.862,0,0,0-5.951,19.9" transform="translate(-168.385 -167.329)" fill="#1b1e1f"/>
        <path id="Path_10860" data-name="Path 10860" d="M273.316,211.939a46.288,46.288,0,0,0-53.29-33.188l-2.355.449c-25.108,6.316-33.77,31.169-26.761,56.094l17.572,90.5h0l51.728,39.925,13.39-33.331-5.271-30.118s23.687-8.443,19.342-32.905C285.57,257.548,279.269,233.571,273.316,211.939Z" transform="translate(-174.888 -161.644)" fill="#ffdbd1"/>
        <path id="Path_10861" data-name="Path 10861" d="M252.394,259.95s-15.407,3.906-33.761-3.271c0,0,10.578,16.67,34.511,9.836Z" transform="translate(-158.759 -119.401)" fill="#7c4236"/>
        <path id="Path_10862" data-name="Path 10862" d="M244.741,216.2a3.547,3.547,0,0,1-2.69,4.156,3.393,3.393,0,0,1-4.191-2.458,3.551,3.551,0,0,1,2.687-4.158A3.4,3.4,0,0,1,244.741,216.2Z" transform="translate(-148.49 -142.491)" fill="#263238"/>
        <path id="Path_10863" data-name="Path 10863" d="M246.617,209.373c-.346.536-3.357-.916-7.106-.192-3.755.67-6.141,3.124-6.634,2.741-.24-.164.045-1.069,1.077-2.169a9.739,9.739,0,0,1,5.2-2.758,9.36,9.36,0,0,1,5.765.721C246.245,208.381,246.791,209.129,246.617,209.373Z" transform="translate(-151.162 -146.139)" fill="#263238"/>
        <path id="Path_10864" data-name="Path 10864" d="M222.6,220.887a3.546,3.546,0,0,1-2.692,4.154,3.39,3.39,0,0,1-4.19-2.458,3.551,3.551,0,0,1,2.687-4.158A3.4,3.4,0,0,1,222.6,220.887Z" transform="translate(-160.369 -139.978)" fill="#263238"/>
        <path id="Path_10865" data-name="Path 10865" d="M222.71,214.394c-.346.538-3.362-.913-7.107-.189-3.755.668-6.139,3.122-6.634,2.739-.238-.164.042-1.068,1.079-2.169a9.723,9.723,0,0,1,5.2-2.756,9.35,9.35,0,0,1,5.765.719C222.332,213.4,222.882,214.152,222.71,214.394Z" transform="translate(-163.986 -143.445)" fill="#263238"/>
        <path id="Path_10866" data-name="Path 10866" d="M232.874,240.723c-.058-.21,2.2-1.057,5.881-2.259.939-.281,1.81-.644,1.847-1.329a4.968,4.968,0,0,0-1.18-2.716q-2.012-3.219-4.221-6.754c-5.911-9.633-10.382-17.629-9.991-17.864s5.5,7.384,11.4,17.019q2.153,3.57,4.11,6.819c.57,1.02,1.429,2.136,1.212,3.664a2.447,2.447,0,0,1-1.307,1.7,6.612,6.612,0,0,1-1.584.535C235.283,240.466,232.929,240.932,232.874,240.723Z" transform="translate(-155.244 -144.55)" fill="#263238"/>
        <path id="Path_10867" data-name="Path 10867" d="M222.455,206.009c-.313,1.045-3.724.625-7.705,1.251-4,.536-7.189,1.916-7.739,1-.244-.441.295-1.429,1.576-2.461a12.07,12.07,0,0,1,5.7-2.378,11.664,11.664,0,0,1,6.064.665C221.833,204.713,222.589,205.512,222.455,206.009Z" transform="translate(-165.024 -148.042)" fill="#263238"/>
        <path id="Path_10868" data-name="Path 10868" d="M245.834,200.71c-.627,1-3.892.707-7.622,1.374-3.747.558-6.765,1.882-7.659,1.129-.4-.372-.068-1.321,1.157-2.389a12.329,12.329,0,0,1,5.92-2.573,12.128,12.128,0,0,1,6.395.558C245.506,199.434,246.1,200.228,245.834,200.71Z" transform="translate(-152.452 -150.84)" fill="#263238"/>
        <path id="Path_10869" data-name="Path 10869" d="M201.116,232.084a6.741,6.741,0,0,0-8.367-5.023c-4.469,1.3-9.042,4.847-6.951,14.2,3.709,16.582,19.594,9.438,19.515,8.956C205.262,249.887,202.731,239.009,201.116,232.084Z" transform="translate(-176.652 -135.427)" fill="#ffdbd1"/>
        <path id="Path_10870" data-name="Path 10870" d="M198.215,242.862c-.085-.035-.244.269-.682.6a2.958,2.958,0,0,1-2.149.527c-1.9-.25-3.993-2.7-4.741-5.674a9.771,9.771,0,0,1-.117-4.316,3.416,3.416,0,0,1,1.676-2.7,1.5,1.5,0,0,1,1.882.409c.327.415.3.77.39.779.055.031.293-.358.006-1.014a1.889,1.889,0,0,0-.885-.893,2.23,2.23,0,0,0-1.692-.065,4.164,4.164,0,0,0-2.443,3.246,10.066,10.066,0,0,0,.032,4.846c.854,3.317,3.265,6.063,5.817,6.219a3.175,3.175,0,0,0,2.544-1.031C198.275,243.271,198.28,242.881,198.215,242.862Z" transform="translate(-174.558 -133.508)" fill="#7c4236"/>
        <path id="Path_10871" data-name="Path 10871" d="M257.588,182.966a6.4,6.4,0,0,0-.81-1.079,10.943,10.943,0,0,0-9.206-3.15,41.674,41.674,0,0,0-6.315-1.343,14.791,14.791,0,0,0-24.867,3.657c-.665.227-1.327.473-1.99.725a15.106,15.106,0,0,0-21.338,10.675,10.968,10.968,0,0,0-9.165,17.985c-2.673,2.285-4.672,5.754-4.078,9.218.561,3.26,4.144,5.884,7.2,4.9.933,8.106,3.584,17.358,5.585,25.581,1.407,5.788,9.507,7.843,10.773,11.714,6.454,19.751,10.942,7.3,5.506-35.093.358-.4.717-.831,1.077-1.306.725-.956.742-2,1.335-3.042.708-1.245,2.452-1.229,3.879-1.346a10.842,10.842,0,0,0,9.6-9.741c1.59,1.616,4.462.988,6.1-.576s2.472-3.769,3.618-5.726,2.918-3.849,5.182-3.955c1.266-.06,2.561.455,3.781.109,2.154-.613,2.735-3.382,2.653-5.62-.071-1.885-.227-4.01.694-5.553a12.552,12.552,0,0,1,4.01-2.017c.848-.065,1.721-.055,2.552-.091a7.852,7.852,0,0,0,1.188-.152,12.347,12.347,0,0,1,1.632.321c8.048,2.165,17.4,16.223,17.4,16.223C272.257,194.509,265.457,187.44,257.588,182.966Z" transform="translate(-179.635 -164.742)" fill="#1b1e1f"/>
        <path id="Path_10872" data-name="Path 10872" d="M181.139,207.02c-.012-.006.025-.1.108-.272a8.434,8.434,0,0,1,.409-.756A9.313,9.313,0,0,1,183.9,203.6a10.77,10.77,0,0,1,4.737-2,9.925,9.925,0,0,1,6.636,1.135l-.424.226a13.425,13.425,0,0,1,5.31-9.664,16.99,16.99,0,0,1,5.637-2.965,20.631,20.631,0,0,1,6.677-.787,33.883,33.883,0,0,1,12.175,3.127l-.461.243a15.15,15.15,0,0,1,6.026-9.323,14.65,14.65,0,0,1,14.027-1.55,10.5,10.5,0,0,1,1.38.687,1.926,1.926,0,0,1,.441.3c-.026.048-.655-.321-1.9-.779a15.184,15.184,0,0,0-5.574-.908,14.234,14.234,0,0,0-8.04,2.709,14.657,14.657,0,0,0-5.7,8.988l-.078.409-.384-.166a33.76,33.76,0,0,0-11.933-3.036,20.147,20.147,0,0,0-6.45.748,16.418,16.418,0,0,0-5.424,2.824,12.917,12.917,0,0,0-5.164,9.174l-.025.464-.4-.24a9.518,9.518,0,0,0-6.276-1.169,10.68,10.68,0,0,0-4.62,1.813A11.429,11.429,0,0,0,181.139,207.02Z" transform="translate(-178.873 -160.033)" fill="#455a64"/>
        <path id="Path_10873" data-name="Path 10873" d="M246.8,183.052a4.029,4.029,0,0,1-.164.7,14.249,14.249,0,0,0-.263,2.046c-.058.9-.06,2.013-.1,3.317a10.536,10.536,0,0,1-.854,4.419,3.494,3.494,0,0,1-2.108,1.693,12.486,12.486,0,0,1-2.87.358,5.722,5.722,0,0,0-2.8.745,7.683,7.683,0,0,0-2.071,2.345c-.588.933-1.109,1.967-1.681,3a11.977,11.977,0,0,1-1.993,3.14,7.941,7.941,0,0,1-3.423,1.921,6.3,6.3,0,0,1-2.045.254,2.9,2.9,0,0,1-2.016-.874L225,205.9a10.375,10.375,0,0,1-.578,3.025,10.187,10.187,0,0,1-1.583,2.747,11.718,11.718,0,0,1-5.379,3.569,14.1,14.1,0,0,1-2.653.6,5.735,5.735,0,0,0-2.423.464,3.473,3.473,0,0,0-1.523,1.758,17.329,17.329,0,0,1-1.344,2.2c-1.968,2.75-4.671,5.022-7.825,5.656a12.23,12.23,0,0,1-8.466-1.868,12.65,12.65,0,0,1-4.857-5.657l.316.126a6.687,6.687,0,0,1-5.674-.269,6.449,6.449,0,0,1-3.349-5.845,4.47,4.47,0,0,1,.078-.7c.031-.155.052-.232.063-.23a7.36,7.36,0,0,0,.587,3.478,6.08,6.08,0,0,0,2.795,2.958,6.312,6.312,0,0,0,5.308.164l.22-.1.1.221a12.226,12.226,0,0,0,4.72,5.362,11.707,11.707,0,0,0,8.038,1.722c2.907-.595,5.5-2.764,7.389-5.422a16.566,16.566,0,0,0,1.289-2.125,4.173,4.173,0,0,1,1.805-2.054,3.823,3.823,0,0,1,1.36-.435l1.311-.112a13.508,13.508,0,0,0,2.518-.573,11.063,11.063,0,0,0,5.062-3.348,9.486,9.486,0,0,0,1.473-2.543,9.733,9.733,0,0,0,.545-2.805l.048-.807.544.592c.782.848,2.223.753,3.377.433a7.32,7.32,0,0,0,3.153-1.741,11.587,11.587,0,0,0,1.9-2.975c.581-1.034,1.109-2.062,1.728-3.025a8.156,8.156,0,0,1,2.265-2.494,6.205,6.205,0,0,1,3.064-.8,12.3,12.3,0,0,0,2.764-.3,3.051,3.051,0,0,0,1.871-1.453,10.443,10.443,0,0,0,.893-4.221c.075-1.3.114-2.414.207-3.32a11.367,11.367,0,0,1,.38-2.059A2.79,2.79,0,0,1,246.8,183.052Z" transform="translate(-179.663 -158.895)" fill="#455a64"/>
        <path id="Path_10874" data-name="Path 10874" d="M223.439,235.638c-.69,4.56,1.294,9.028,5.628,10.606a6.7,6.7,0,0,0,8.4-4.446,12.079,12.079,0,0,0,.1-5.763C233.591,235.8,227.415,235.868,223.439,235.638Z" transform="translate(-156.254 -130.688)" fill="#7c4236"/>
        <g id="Group_9766" data-name="Group 9766" transform="translate(66.692 104.275)">
          <path id="Path_10875" data-name="Path 10875" d="M236.8,243.889c.023.017-.035.126-.167.324a4.306,4.306,0,0,1-.67.8,6.366,6.366,0,0,1-3.438,1.7,8.221,8.221,0,0,1-5.586-1.129,8.67,8.67,0,0,1-3.76-5.852,8.906,8.906,0,0,1-.1-1.881,4,4,0,0,1,.484-1.864,1.64,1.64,0,0,1,.854-.671,2.933,2.933,0,0,1,.948-.121l1.63.049c2.114.1,4,.315,5.579.473,3.156.344,5.112.436,5.113.55a22.066,22.066,0,0,1-5.159.014c-1.589-.088-3.474-.24-5.562-.3l-1.6-.021c-.542,0-.928.088-1.146.456a3.334,3.334,0,0,0-.349,1.487,8.349,8.349,0,0,0,.091,1.7,8.086,8.086,0,0,0,3.372,5.364,7.868,7.868,0,0,0,5.1,1.188,6.543,6.543,0,0,0,3.313-1.377C236.447,244.246,236.736,243.836,236.8,243.889Z" transform="translate(-223.071 -235.198)" fill="#263238"/>
        </g>
      </g>
      <g id="Group_9786" data-name="Group 9786" transform="translate(134.168)">
        <g id="Group_9769" data-name="Group 9769" transform="translate(39.037)">
          <g id="Group_9768" data-name="Group 9768">
            <path id="Path_10876" data-name="Path 10876" d="M292.4,234.826s19.465-2.42,48.729-25.695,45.1-56.351,48.368-55.875,18.237-4.83,39.922,57.072,9.643,74.666,4.225,74.044-41.3-14.365-64.568-13.918-53.983,9.658-53.983,9.658Z" transform="translate(-292.397 -153.252)" fill="#ff725e"/>
          </g>
        </g>
        <g id="Group_9771" data-name="Group 9771" transform="translate(0 111.9)">
          <g id="Group_9770" data-name="Group 9770">
            <path id="Path_10877" data-name="Path 10877" d="M271.008,241.985l10.4-2.221-5.627-13.68-8.795,4.382Z" transform="translate(-266.989 -226.084)" fill="#1b1e1f"/>
          </g>
        </g>
        <g id="Group_9773" data-name="Group 9773" transform="translate(4.018 72.711)">
          <g id="Group_9772" data-name="Group 9772">
            <path id="Path_10878" data-name="Path 10878" d="M270.827,239.39l3.844,11.554,2.392,5.815a16.214,16.214,0,0,0,20.368,9.131l42.21-11.866-18.134-53.447L279.574,218.26A16.217,16.217,0,0,0,270.827,239.39Z" transform="translate(-269.604 -200.577)" fill="#1b1e1f"/>
          </g>
        </g>
        <g id="Group_9775" data-name="Group 9775" transform="translate(20.37 118.682)">
          <g id="Group_9774" data-name="Group 9774">
            <path id="Path_10879" data-name="Path 10879" d="M280.247,241.095l14.138,25.073,6.461-2.088,44.127,32.945,10.956-23.848s-25.675-9.816-30.714-18.617.267-11.065.267-11.065l-12.434-13Z" transform="translate(-280.247 -230.498)" fill="#1b1e1f"/>
          </g>
        </g>
        <g id="Group_9777" data-name="Group 9777" transform="translate(135.711 1.674)">
          <g id="Group_9776" data-name="Group 9776">
            <path id="Path_10880" data-name="Path 10880" d="M393.357,210.617c11.488,33.508,14.831,62.718,7.468,65.242s-22.644-22.594-34.13-56.1-14.831-62.718-7.468-65.241S381.87,177.109,393.357,210.617Z" transform="translate(-355.319 -154.341)" fill="#1b1e1f"/>
          </g>
        </g>
        <g id="Group_9779" data-name="Group 9779" transform="translate(144.83 46.413)">
          <g id="Group_9778" data-name="Group 9778">
            <path id="Path_10881" data-name="Path 10881" d="M361.254,185.061s17.541-8.715,24.5,14.53-10.827,25.283-10.827,25.283A149.856,149.856,0,0,1,361.254,185.061Z" transform="translate(-361.254 -183.461)" fill="#fafafa"/>
          </g>
        </g>
        <g id="Group_9781" data-name="Group 9781" transform="translate(129.679 19.668)">
          <g id="Group_9780" data-name="Group 9780">
            <path id="Path_10882" data-name="Path 10882" d="M351.431,166.053a25.084,25.084,0,0,0,.247,4.339c.266,2.786.633,6.826,1.235,11.8.475,2.467.994,5.162,1.55,8.051q.424,2.173.876,4.486.228,1.157.462,2.345c.175.788.427,1.569.642,2.369.9,3.193,1.851,6.542,2.833,10.014l.748,2.626c.243.887.622,1.733.93,2.612q.979,2.62,1.983,5.311t1.993,5.311c.346.865.618,1.753,1.016,2.581l1.162,2.474c1.538,3.263,3.025,6.411,4.44,9.415.364.745.687,1.5,1.071,2.208q.606,1.053,1.2,2.076,1.18,2.044,2.288,3.965c1.481,2.546,2.861,4.923,4.125,7.1,2.807,4.139,5.179,7.418,6.806,9.692a25.219,25.219,0,0,0,2.667,3.438,25.374,25.374,0,0,0-2.206-3.749c-1.558-2.409-3.743-5.792-6.428-9.945-1.208-2.186-2.527-4.572-3.942-7.132l-2.2-3.964q-.571-1.019-1.155-2.07c-.373-.71-.685-1.464-1.039-2.208l-4.336-9.387q-.567-1.219-1.141-2.46c-.393-.822-.659-1.707-1-2.567l-1.971-5.276q-1-2.669-1.977-5.27c-.307-.873-.688-1.715-.931-2.592l-.754-2.6-2.895-9.924c-.223-.793-.482-1.566-.667-2.346q-.247-1.178-.489-2.323c-.323-1.526-.636-3.01-.94-4.443-.615-2.861-1.188-5.531-1.713-7.974-.7-4.886-1.272-8.864-1.679-11.7A25.609,25.609,0,0,0,351.431,166.053Z" transform="translate(-351.393 -166.053)" fill="#263238"/>
          </g>
        </g>
        <g id="Group_9782" data-name="Group 9782" transform="translate(25.191 126.145)">
          <path id="Path_10883" data-name="Path 10883" d="M332.249,235.369a9.568,9.568,0,0,1-1.9.6l-5.236,1.372c-4.423,1.143-10.521,2.758-17.242,4.612s-12.806,3.551-17.248,4.651c-2.219.553-4.024.968-5.276,1.228a9.575,9.575,0,0,1-1.965.323,9.488,9.488,0,0,1,1.89-.624l5.207-1.473c4.555-1.294,10.551-2.994,17.18-4.875,6.726-1.858,12.858-3.386,17.32-4.391,2.231-.5,4.042-.888,5.3-1.126A9.592,9.592,0,0,1,332.249,235.369Z" transform="translate(-283.385 -235.355)" fill="#455a64"/>
        </g>
        <g id="Group_9783" data-name="Group 9783" transform="translate(20.018 117.417)">
          <path id="Path_10884" data-name="Path 10884" d="M309.248,229.689a23.056,23.056,0,0,1-4.124,1.755c-2.59.969-6.207,2.208-10.249,3.417s-7.75,2.154-10.448,2.762a22.941,22.941,0,0,1-4.41.793,27.133,27.133,0,0,1,4.27-1.34c2.656-.748,6.325-1.779,10.358-2.982s7.662-2.354,10.294-3.185A26.99,26.99,0,0,1,309.248,229.689Z" transform="translate(-280.018 -229.675)" fill="#455a64"/>
        </g>
        <g id="Group_9784" data-name="Group 9784" transform="translate(16.273 105.207)">
          <path id="Path_10885" data-name="Path 10885" d="M303.852,221.747c.063.21-5.766,2.16-13.019,4.353s-13.189,3.8-13.252,3.588,5.765-2.16,13.02-4.354S303.788,221.535,303.852,221.747Z" transform="translate(-277.581 -221.728)" fill="#455a64"/>
        </g>
        <g id="Group_9785" data-name="Group 9785" transform="translate(13.503 93.453)">
          <path id="Path_10886" data-name="Path 10886" d="M298.275,214.091c.089.2-4.877,2.572-11.087,5.29s-11.32,4.76-11.409,4.557,4.875-2.57,11.088-5.29S298.185,213.89,298.275,214.091Z" transform="translate(-275.777 -214.077)" fill="#455a64"/>
        </g>
      </g>
      <g id="Group_9793" data-name="Group 9793" transform="translate(6.113 179.728)">
        <path id="Path_10887" data-name="Path 10887" d="M300.213,316.2l-25.638-43.236-66.261-2.736.069,6.026s-18.2,18.3-24.065,43.245c-4.439,18.879,14.236,90.939,19.492,115.914C210.273,466.126,219.234,505,219.234,505c-1.329,6.88-10.166,12.453-9.556,21.642l147.282-1.615-7.567-29.849Z" transform="translate(-183.642 -270.231)" fill="#ff725e"/>
        <g id="Group_9787" data-name="Group 9787" transform="translate(36.748 235.982)">
          <path id="Path_10888" data-name="Path 10888" d="M338.471,424.225c0,.22-29.309.4-65.453.4s-65.459-.18-65.459-.4,29.3-.4,65.459-.4S338.471,424,338.471,424.225Z" transform="translate(-207.56 -423.824)" fill="#fff"/>
        </g>
        <g id="Group_9788" data-name="Group 9788" transform="translate(27.757 199.031)">
          <path id="Path_10889" data-name="Path 10889" d="M331.433,400.175c0,.221-29.043.4-64.86.4s-64.866-.178-64.866-.4,29.037-.4,64.866-.4S331.433,399.954,331.433,400.175Z" transform="translate(-201.708 -399.774)" fill="#fff"/>
        </g>
        <g id="Group_9789" data-name="Group 9789" transform="translate(20.533 158.859)">
          <path id="Path_10890" data-name="Path 10890" d="M323.961,374.028c0,.221-28.422.4-63.475.4s-63.48-.178-63.48-.4,28.416-.4,63.48-.4S323.961,373.807,323.961,374.028Z" transform="translate(-197.006 -373.627)" fill="#fff"/>
        </g>
        <g id="Group_9790" data-name="Group 9790" transform="translate(9.73 118.436)">
          <path id="Path_10891" data-name="Path 10891" d="M320.744,347.716c0,.221-29.275.4-65.38.4s-65.388-.18-65.388-.4,29.27-.4,65.388-.4S320.744,347.5,320.744,347.716Z" transform="translate(-189.975 -347.317)" fill="#fff"/>
        </g>
        <g id="Group_9791" data-name="Group 9791" transform="translate(1.294 68.284)">
          <path id="Path_10892" data-name="Path 10892" d="M308.222,315.074c0,.221-27.7.4-61.867.4s-61.871-.18-61.871-.4,27.7-.4,61.871-.4S308.222,314.855,308.222,315.074Z" transform="translate(-184.484 -314.675)" fill="#fff"/>
        </g>
        <g id="Group_9792" data-name="Group 9792" transform="translate(12.542 22.35)">
          <path id="Path_10893" data-name="Path 10893" d="M283.2,285.179c0,.221-20.462.4-45.7.4s-45.7-.178-45.7-.4,20.457-.4,45.7-.4S283.2,284.958,283.2,285.179Z" transform="translate(-191.805 -284.778)" fill="#fff"/>
        </g>
      </g>
      <g id="Group_9803" data-name="Group 9803" transform="translate(19.448 132.626)">
        <g id="Group_9799" data-name="Group 9799">
          <path id="Path_10894" data-name="Path 10894" d="M196.306,317.506s9.375,16.541,24.172,28.82S280.3,380.645,280.3,380.645l3.749-7.774,33.592,7.842-6.224-20.669Z" transform="translate(-190.184 -197.771)" opacity="0.3"/>
          <path id="Path_10895" data-name="Path 10895" d="M343.946,285.7l-11.711,63.664L231.81,301.628l-16.181,56.626c39.466,19.3,119.368,51.433,129.653,50.5,14.622-1.321,24.724-10.054,29.278-31.476,2.818-13.256,1.486-102.174,1.486-102.174Z" transform="translate(-179.82 -220.514)" fill="#ffdbd1"/>
          <g id="Group_9795" data-name="Group 9795" transform="translate(0 63.616)">
            <path id="Path_10896" data-name="Path 10896" d="M250.766,289.849s-37.561-23.2-53.942,6.035c-11.707,28.513,1.249,51.288,30.161,65.428,13.941,6.819,32.93,15.238,52.11,23.235l27.944-62.014Z" transform="translate(-192.209 -280.906)" fill="#ff725e"/>
            <g id="Group_9794" data-name="Group 9794">
              <path id="Path_10897" data-name="Path 10897" d="M250.879,289.922s.358.172,1.034.545l2.978,1.678c2.632,1.5,6.456,3.692,11.342,6.487l41.081,23.7.247.143-.118.261c-7.96,17.719-17.489,38.93-27.875,62.045l-.157.347-.352-.146c-9.832-4.1-19.972-8.447-30.284-13.064q-6.854-3.07-13.507-6.184c-4.431-2.077-8.79-4.158-12.992-6.441-2.069-1.188-4.1-2.415-6.066-3.706-1.907-1.378-3.875-2.643-5.611-4.181a57.084,57.084,0,0,1-9.509-9.725q-.961-1.371-1.91-2.727a28.464,28.464,0,0,1-1.67-2.835,44.414,44.414,0,0,1-2.727-5.869c-.367-1-.618-2.036-.93-3.042l-.444-1.512c-.124-.507-.189-1.028-.286-1.539q-.265-1.537-.527-3.056c-.092-1.02-.128-2.04-.192-3.051a42.212,42.212,0,0,1,.115-5.974c.155-1.957.572-3.853.837-5.735.485-1.838.937-3.654,1.444-5.417q.943-2.588,1.85-5.084l0-.014.011-.02a30.744,30.744,0,0,1,8.887-10.059,27.225,27.225,0,0,1,11.165-4.4,44.239,44.239,0,0,1,19.107,1.861,69.717,69.717,0,0,1,11.336,4.592c1.248.641,2.18,1.166,2.8,1.53s.917.588.917.588-.332-.166-.963-.507-1.579-.837-2.836-1.45a73.76,73.76,0,0,0-11.354-4.42,44.171,44.171,0,0,0-18.929-1.7,26.715,26.715,0,0,0-10.924,4.366,30.223,30.223,0,0,0-8.667,9.9l.017-.034q-.89,2.475-1.811,5.041c-.495,1.747-.934,3.543-1.409,5.361-.255,1.857-.662,3.732-.808,5.659a41.879,41.879,0,0,0-.1,5.883c.068.994.1,2,.2,3q.263,1.491.527,3c.1.5.16,1.013.284,1.51l.439,1.486c.309.986.558,2,.92,2.985a43.635,43.635,0,0,0,2.692,5.76,28.13,28.13,0,0,0,1.647,2.786l1.885,2.681a56.433,56.433,0,0,0,9.4,9.581c1.716,1.518,3.669,2.767,5.556,4.128,1.945,1.277,3.962,2.491,6.015,3.667,4.161,2.255,8.521,4.336,12.947,6.408s8.93,4.13,13.5,6.175c10.3,4.614,20.437,8.968,30.258,13.07l-.507.2c10.435-23.092,20.012-44.281,28.012-61.983l.129.406c-17.12-10.01-31.157-18.219-40.945-23.94L254.8,292.305l-2.931-1.755C251.205,290.15,250.879,289.922,250.879,289.922Z" transform="translate(-192.322 -280.98)" fill="#263238"/>
            </g>
          </g>
          <g id="Group_9797" data-name="Group 9797" transform="translate(155.999)">
            <g id="Group_9796" data-name="Group 9796">
              <path id="Path_10898" data-name="Path 10898" d="M300.482,315.662l2.265-23.721s-9.063-18.256-8.888-20.082.708-11.886.708-11.886l22.662-20.4s7.339,0,7.525,7.263c0,0,7.064-1.487,7.157,6.972,0,0,7.645.281,7.845,6.465h0s4.608-.608,4.448,5.852c-.117,4.646-2.145,22.455-2.145,22.455l-9.478,16.484-.78,16.486Z" transform="translate(-293.856 -239.574)" fill="#ffdbd1"/>
            </g>
          </g>
          <g id="Group_9798" data-name="Group 9798" transform="translate(152.408 128.851)">
            <path id="Path_10899" data-name="Path 10899" d="M304.084,346.709c-.261.088-1.931-5.671-5.364-12.133s-7.4-10.967-7.193-11.134a15.17,15.17,0,0,1,2.681,2.859,50.449,50.449,0,0,1,5.218,7.9,55.1,55.1,0,0,1,3.7,8.71A15.981,15.981,0,0,1,304.084,346.709Z" transform="translate(-291.519 -323.439)" fill="#7c4236"/>
          </g>
        </g>
        <g id="Group_9800" data-name="Group 9800" transform="translate(6.216 64.682)">
          <path id="Path_10900" data-name="Path 10900" d="M225.96,281.674a13.515,13.515,0,0,1-1,2.156c-.687,1.364-1.716,3.32-3.014,5.722-2.592,4.806-6.289,11.38-10.434,18.6-4.118,7.158-7.843,13.631-10.635,18.483-1.311,2.266-2.4,4.148-3.236,5.6a13.294,13.294,0,0,1-1.271,2.005,13.474,13.474,0,0,1,1-2.156c.687-1.364,1.718-3.319,3.014-5.72,2.592-4.806,6.29-11.382,10.435-18.606,4.118-7.155,7.843-13.628,10.635-18.48l3.234-5.6A13.451,13.451,0,0,1,225.96,281.674Z" transform="translate(-196.367 -281.674)" fill="#fff"/>
        </g>
        <g id="Group_9801" data-name="Group 9801" transform="translate(32.208 78.094)">
          <path id="Path_10901" data-name="Path 10901" d="M247.5,290.4a2.561,2.561,0,0,1-.244.693l-.844,1.921c-.747,1.662-1.865,4.048-3.28,6.981-2.827,5.868-6.88,13.9-11.606,22.645s-9.24,16.535-12.6,22.112c-1.681,2.79-3.065,5.032-4.048,6.565l-1.146,1.758a2.586,2.586,0,0,1-.446.584,2.58,2.58,0,0,1,.309-.668c.276-.5.613-1.1,1.016-1.833.968-1.692,2.26-3.95,3.827-6.691,3.236-5.646,7.659-13.473,12.387-22.206s8.848-16.719,11.8-22.516c1.436-2.813,2.621-5.132,3.506-6.866l.979-1.854A2.567,2.567,0,0,1,247.5,290.4Z" transform="translate(-213.285 -290.403)" fill="#fff"/>
        </g>
        <g id="Group_9802" data-name="Group 9802" transform="translate(67.31 97.267)">
          <path id="Path_10902" data-name="Path 10902" d="M269.508,302.882a17.074,17.074,0,0,1-.923,2.54c-.638,1.618-1.619,3.935-2.885,6.776-2.527,5.683-6.276,13.424-10.9,21.717s-9.243,15.553-12.748,20.691c-1.752,2.569-3.2,4.623-4.247,6.015a17.442,17.442,0,0,1-1.675,2.122,17.431,17.431,0,0,1,1.42-2.3l4.03-6.15c3.379-5.208,7.9-12.5,12.52-20.766s8.427-15.953,11.082-21.565L268.3,305.3A17.641,17.641,0,0,1,269.508,302.882Z" transform="translate(-236.131 -302.882)" fill="#fff"/>
        </g>
      </g>
    </g>
    <g id="Group_10239" data-name="Group 10239" transform="translate(284.988 0)">
      <path id="Path_10856" data-name="Path 10856" d="M44.136,0l-32.4,8.38,6.7,3.352L0,17.319l37.432-5.028-9.5-4.47Z" transform="translate(0 25.315) rotate(-35)" fill="#fafafa" opacity="0.6"/>
      <path id="Path_10857" data-name="Path 10857" d="M47.248,6.784,14.473,0l4.536,5.967L0,2.842,35.807,14.853l-6.549-8.2Z" transform="translate(44.258 82.35) rotate(-35)" fill="#fafafa" opacity="0.6"/>
      <path id="Path_10858" data-name="Path 10858" d="M42.043,21.917,14.446,2.98l1.874,7.258L0,0,28.37,24.931,25.5,14.833Z" transform="translate(41.954 131.441) rotate(-35)" fill="#fafafa" opacity="0.6"/>
    </g>
  </g>
</svg>
