<svg xmlns="http://www.w3.org/2000/svg" width="20" height="20" viewBox="0 0 20 20">
  <g id="Group_8890" data-name="Group 8890" transform="translate(-8206.84 -2515)">
    <path id="Path_8951" data-name="Path 8951" d="M212.737,132.739a10.012,10.012,0,1,0,7.068,2.932,10,10,0,0,0-7.068-2.932Zm0,18.811a8.829,8.829,0,1,1,6.226-2.586A8.813,8.813,0,0,1,212.737,151.55Z" transform="translate(8004.103 2382.261)" fill="#b2b2b2"/>
    <path id="Path_8952" data-name="Path 8952" d="M294.758,232.074l-5.832,5.8-2.209-2.209a.711.711,0,0,0-1.009,1l2.721,2.721a.711.711,0,0,0,1,0l6.337-6.337a.713.713,0,1,0-1.009-1.008Z" transform="translate(7926.102 2289.26)" fill="#b2b2b2"/>
  </g>
</svg>
