<svg xmlns="http://www.w3.org/2000/svg" width="72" height="72" viewBox="0 0 72 72">
  <g id="Group_10337" data-name="Group 10337" transform="translate(-1218 -306)">
    <g id="Ellipse_634" data-name="Ellipse 634" transform="translate(1218 306)" fill="#ebecfa" stroke="rgba(103,108,177,0.3)" stroke-width="1">
      <circle cx="36" cy="36" r="36" stroke="none"/>
      <circle cx="36" cy="36" r="35.5" fill="none"/>
    </g>
    <path id="Path_11018" data-name="Path 11018" d="M125.322,147.794H82.964V126.439H81.2v23.12h44.123Zm3.177-3.177H86.141V123.262H84.376v23.12H128.5Zm-9.354-12.972a9.726,9.726,0,0,1-4.743,8.383h11.292a2.8,2.8,0,0,1,2.8-2.8V126.066a2.8,2.8,0,0,1-2.8-2.8H114.4a9.727,9.727,0,0,1,4.743,8.383m-8.257,2.453v.271a1.2,1.2,0,0,1-1.289,1.339,1.265,1.265,0,0,1-1.29-1.339v-.494a.439.439,0,0,0-.445-.422h-.982a.438.438,0,0,0-.445.422v.494a2.715,2.715,0,0,0,2.333,2.859v.918a.411.411,0,0,0,.414.421h.875a.411.411,0,0,0,.414-.421v-.933a2.7,2.7,0,0,0,2.318-2.843,2.625,2.625,0,0,0-1.366-2.769l-2-1.263c-.767-.482-1.089-.692-1.089-1.294v-.151a1.2,1.2,0,0,1,1.289-1.339,1.224,1.224,0,0,1,1.29,1.339v.163a.438.438,0,0,0,.445.421h.982a.439.439,0,0,0,.446-.421v-.163a2.7,2.7,0,0,0-2.318-2.844v-.9a.412.412,0,0,0-.414-.422h-.875a.412.412,0,0,0-.414.422v.9a2.77,2.77,0,0,0-2.334,2.933,2.636,2.636,0,0,0,1.151,2.392l2.195,1.4c.645.422,1.105.632,1.105,1.324M90.73,126.066v11.158a2.8,2.8,0,0,1,2.8,2.8h11.292a9.781,9.781,0,0,1,0-16.766H93.534a2.8,2.8,0,0,1-2.8,2.8m39.181,15.375H89.317V121.85H129.91Zm1.765-21.356H87.553v23.12h44.123Z" transform="translate(1147.801 206.915)" fill="#676cb1"/>
  </g>
</svg>
