<svg xmlns="http://www.w3.org/2000/svg" width="72" height="72" viewBox="0 0 72 72">
  <g id="Group_10339" data-name="Group 10339" transform="translate(-1642 -306)">
    <g id="Ellipse_636" data-name="Ellipse 636" transform="translate(1642 306)" fill="#f4e3d1" stroke="rgba(193,116,35,0.3)" stroke-width="1">
      <circle cx="36" cy="36" r="36" stroke="none"/>
      <circle cx="36" cy="36" r="35.5" fill="none"/>
    </g>
    <g id="Group_10312" data-name="Group 10312" transform="translate(-22121.639 6920.66)">
      <path id="Path_11023" data-name="Path 11023" d="M426,271.809v-.278a2.034,2.034,0,0,0-1.63-1.965v4.208a2.033,2.033,0,0,0,1.63-1.965Z" transform="translate(23381.549 -6849.267)" fill="#c17423"/>
      <path id="Path_11024" data-name="Path 11024" d="M393.192,208.808V204.6a2.034,2.034,0,0,0-1.629,1.965v.278a2.034,2.034,0,0,0,1.629,1.965Z" transform="translate(23411.643 -6789.678)" fill="#c17423"/>
      <path id="Path_11025" data-name="Path 11025" d="M172.389,223.408c-.051-.037-.1-.074-.155-.11s-.129-.087-.194-.128l-.043-.026c-.051-.032-.1-.063-.155-.094l-.036-.02c-.055-.031-.11-.062-.166-.092l-.03-.015-.175-.089-.021-.009c-.062-.03-.124-.058-.187-.085,0,0,0,0-.006,0h0a6.557,6.557,0,0,0-1.082-.35,1.3,1.3,0,0,1-.224-.052s-.008-.007-.011-.008c-.071-.013-.143-.026-.215-.036l-.028,0c-.067-.01-.134-.019-.2-.026l-.045,0c-.061-.006-.123-.013-.185-.017l-.069,0L169,222.23l-.1,0c-.046,0-.091,0-.137,0h-.082a6.129,6.129,0,1,0,2.25,11.866q.112-.042.221-.088a6.093,6.093,0,0,0,2.416-1.831q.148-.186.282-.384a6.092,6.092,0,0,0,1.035-2.975q.017-.228.017-.459h0a6.127,6.127,0,0,0-2.512-4.947Z" transform="translate(23621.615 -6805.845)" fill="#c17423"/>
      <path id="Path_11026" data-name="Path 11026" d="M258.509,76.741a15.116,15.116,0,0,0-9.5,3.311,15.367,15.367,0,0,0-5.164,7.669l.18.017.048,0q.127.014.252.033l.071.012c.06.01.12.019.18.031l.092.018.158.033.1.022.153.038.1.025.155.045.089.027c.059.018.117.038.175.058l.065.022q.119.042.237.088l.047.019q.094.038.187.078l.081.037.149.069.089.044.139.071.09.048.006,0h0a12.321,12.321,0,1,1,11.828,15.771h0a12.323,12.323,0,0,1-9.738-4.773l-.018.021-.063.074c-.038.043-.076.086-.114.128l-.059.065q-.073.078-.149.154l-.03.031c-.061.06-.123.12-.186.178l-.054.049c-.045.041-.091.082-.138.123l-.071.06-.128.105-.077.06-.133.1-.074.055c-.051.037-.1.073-.156.109l-.054.038c-.071.048-.143.093-.216.138l-.052.031c-.056.034-.113.067-.17.1l-.08.043c-.049.027-.1.052-.148.078-.029.015-.058.026-.088.041s-.043.015-.065.026h0a16.421,16.421,0,0,0,1.558,1.7h.274c.087,0,.173.017.26.019.029,0,.058.018.087.019.057,0,.114,0,.172.009l.1.008.155.013.109.013.146.017.113.017.141.021.113.021.138.026.114.024.135.03.113.028.133.034.113.032.131.038.112.036.129.042.111.039.127.046.11.043.125.05.109.046.123.054.108.05.121.058.106.053.119.062.1.057.117.065.1.06c.038.023.077.045.114.069l.1.063.112.072.1.066.11.076.1.069.107.08.094.072.1.083.092.076.1.087.089.078.1.091.087.081.1.094.085.084.094.1.081.087.091.1c.026.03.053.059.079.09l.088.1.076.092.085.107.073.094c.028.037.055.074.081.111s.047.063.07.1.053.077.079.115l.066.1c.026.039.051.079.076.119s.042.066.062.1l.015.024h0a15.276,15.276,0,1,0,3.532-30.138Z" transform="translate(23547.131 -6672.401)" fill="#c17423"/>
      <path id="Path_11027" data-name="Path 11027" d="M292.454,140.088c0,.058-.005.116-.01.174,0,.034-.006.067-.009.1,0,.052-.009.1-.015.157,0,.035-.008.07-.013.106s-.013.1-.02.15-.011.072-.017.108-.016.1-.025.146-.013.072-.02.108-.019.1-.03.145-.016.071-.024.106-.024.1-.036.146-.017.069-.027.1c-.014.05-.028.1-.043.149-.01.032-.019.065-.029.1-.016.053-.034.105-.052.158-.009.028-.018.057-.028.085q-.034.1-.071.194c-.006.015-.011.031-.017.046-.031.08-.064.159-.1.237l-.027.061c-.026.058-.051.115-.079.172l-.042.086c-.024.048-.047.1-.072.144l-.05.094c-.024.044-.048.089-.072.132s-.037.064-.056.1-.029.051-.045.077h0a11.228,11.228,0,1,0-1.8-9.455l.027.021.078.061.091.073.077.064.087.074.075.067.084.077.073.069.081.079.071.071.079.081.069.073c.026.027.051.055.076.083l.067.075.074.086.064.076.072.09.06.075.072.094.056.074.072.1.051.072.075.112.042.063c.033.05.064.1.1.153l.016.026c.036.06.072.121.107.182l.031.057c.024.043.047.085.07.128l.038.073c.02.038.039.077.059.115l.038.079c.018.037.036.074.053.112l.037.083c.016.037.032.073.048.11s.024.058.035.086l.044.11.033.089c.014.036.027.073.04.11s.021.06.031.091.025.073.036.11l.029.092c.011.037.022.074.033.111s.018.062.026.093.02.075.03.112l.024.094c.009.037.018.075.026.113s.014.063.021.094.016.077.023.115l.018.094c.007.039.014.078.02.117s.01.063.015.094.011.079.016.119.008.062.012.093.009.081.013.123.007.06.009.091.007.086.01.129,0,.057.006.086c0,.048,0,.1.006.144,0,.024,0,.048,0,.072q0,.109,0,.217,0,.13,0,.26c0,.028,0,.057,0,.085Zm4.528-5.969a3.121,3.121,0,0,1,2.716-3.065v-1.231a.543.543,0,1,1,1.086,0v1.231a3.1,3.1,0,0,1,2.688,3.065.543.543,0,0,1-1.086,0,2.01,2.01,0,0,0-1.6-1.965v4.276A3.121,3.121,0,0,1,303.5,139.5v.278a3.121,3.121,0,0,1-2.716,3.065v1.231a.543.543,0,1,1-1.086,0v-1.231a3.1,3.1,0,0,1-2.688-3.065.543.543,0,0,1,1.086,0,2.01,2.01,0,0,0,1.6,1.965v-4.276a3.121,3.121,0,0,1-2.716-3.065Z" transform="translate(23505.137 -6717.232)" fill="#c17423"/>
      <path id="Path_11028" data-name="Path 11028" d="M94.748,414.218h23.495a6.655,6.655,0,0,0-.834-2.762c-.005-.008-.01-.031-.015-.039a6.771,6.771,0,0,0-5.874-3.445H101.471a6.813,6.813,0,0,0-6.723,6.247Z" transform="translate(23683.891 -6976.215)" fill="#c17423"/>
    </g>
  </g>
</svg>
