<svg xmlns="http://www.w3.org/2000/svg" width="72" height="72" viewBox="0 0 72 72">
  <g id="Group_10338" data-name="Group 10338" transform="translate(-1430 -306)">
    <g id="Ellipse_635" data-name="Ellipse 635" transform="translate(1430 306)" fill="#f0f4d4" stroke="rgba(153,172,26,0.3)" stroke-width="1">
      <circle cx="36" cy="36" r="36" stroke="none"/>
      <circle cx="36" cy="36" r="35.5" fill="none"/>
    </g>
    <g id="Group_10311" data-name="Group 10311" transform="translate(-22181.266 6857)">
      <path id="Path_11019" data-name="Path 11019" d="M269.532,293.63c-.531.084-1.063.163-1.594.253q-3.574.616-7.15,1.236l-8.516,1.47-7.853,1.353q-2.067.357-4.134.713c-.042.007-.081.02-.144.036.03,4.6.06,9.212.089,13.848.388-.084.76-.162,1.132-.243l17.3-3.826q4.949-1.094,9.9-2.184c.137-.031.176-.079.183-.2q.137-2.255.283-4.509.162-2.538.325-5.075c.05-.788.095-1.575.144-2.363.007-.09.026-.179.04-.269v-.236Z" transform="translate(23398.414 -6810.969)" fill="#99ac1a" fill-rule="evenodd"/>
      <path id="Path_11020" data-name="Path 11020" d="M79.891,270.83c.032,1.084.063,2.132.093,3.179q.054,1.867.109,3.734c.047,1.577.1,3.153.143,4.73a.4.4,0,0,0,.16.316q4.933,4.144,9.86,8.292c.065.055.135.106.231.182,0-.305,0-.575,0-.846q-.027-2.505-.055-5.007-.041-3.413-.085-6.826c-.005-.444-.025-.886-.023-1.329a.3.3,0,0,0-.175-.3q-3.689-2.2-7.375-4.412l-2.74-1.64c-.034-.021-.071-.039-.143-.078Z" transform="translate(23546.381 -6789.917)" fill="#99ac1a" fill-rule="evenodd"/>
      <path id="Path_11021" data-name="Path 11021" d="M98.074,118.9a3.182,3.182,0,0,1,3.568-1.6s3.664-.236,6.6,14.985l30.113-4.973s-2.4-11.284-8.834-11.913l-28.882,1.527a2.831,2.831,0,0,0-2.565,1.972Z" transform="translate(23529.592 -6646.401)" fill="#99ac1a" fill-rule="evenodd"/>
      <path id="Path_11022" data-name="Path 11022" d="M89.974,166.084s-1.646-15.21-6.584-14.013c0,0-3.775.45-3.585,8.005" transform="translate(23546.469 -6680.199)" fill="#99ac1a" fill-rule="evenodd"/>
    </g>
  </g>
</svg>
